M48
;DRILL file {KiCad 4.0.6-e0-6349~53~ubuntu16.04.1} date Thu Nov 23 18:30:19 2017
;FORMAT={-:-/ absolute / metric / decimal}
FMAT,2
METRIC,TZ
T1C0.200
T2C0.400
T3C0.600
T4C0.650
T5C0.700
T6C0.813
T7C1.000
T8C1.800
T9C2.000
%
G90
G05
M71
T1
X106.175Y-84.95
X106.175Y-85.95
X106.175Y-86.95
X106.175Y-87.95
X107.175Y-87.95
X107.35Y-127.28
X107.35Y-128.28
X108.175Y-87.95
X108.575Y-83.95
X109.175Y-87.95
X109.775Y-83.95
X110.175Y-87.95
X110.975Y-83.95
X111.175Y-87.95
X111.63Y-135.85
X111.63Y-137.85
X111.63Y-139.85
X111.63Y-141.85
X112.175Y-83.95
X112.175Y-87.95
X113.175Y-87.95
X113.375Y-83.95
X113.97Y-121.46
X114.175Y-87.95
X114.575Y-83.95
X115.175Y-87.95
X115.775Y-83.95
X116.11Y-127.2
X116.175Y-87.95
X116.55Y-132.65
X116.55Y-134.65
X116.55Y-136.65
X116.55Y-138.65
X116.55Y-140.65
X116.55Y-142.65
X116.78Y-73.53
X116.78Y-74.68
X116.78Y-75.83
X116.78Y-76.98
X116.975Y-83.95
X117.175Y-87.95
X117.67Y-65.92
X117.74Y-127.22
X117.93Y-73.53
X117.93Y-74.68
X117.93Y-75.83
X117.93Y-76.98
X118.175Y-87.95
X118.67Y-65.92
X119.08Y-73.53
X119.08Y-74.68
X119.08Y-75.83
X119.08Y-76.98
X119.44Y-55.01
X119.44Y-57.01
X119.44Y-59.01
X119.44Y-61.01
X119.67Y-65.92
X120.23Y-73.53
X120.23Y-74.68
X120.23Y-75.83
X120.23Y-76.98
X120.55Y-132.65
X120.55Y-134.65
X120.55Y-136.65
X120.55Y-138.65
X120.55Y-140.65
X120.55Y-142.65
X121.07Y-122.55
X121.07Y-123.75
X121.69Y-80.7
X121.69Y-81.7
X121.69Y-82.7
X122.27Y-122.55
X122.27Y-123.75
X123.74Y-79.85
X126.59Y-63.03
X126.59Y-64.53
X126.59Y-66.03
X126.59Y-67.53
X126.59Y-69.03
X126.59Y-70.53
X126.59Y-72.03
X126.59Y-73.53
X127.35Y-79.79
X128.84Y-117.6
X128.84Y-118.8
X128.84Y-120.
X128.84Y-121.2
T2
X107.304Y-124.396
X108.14Y-52.87
X112.01Y-73.82
X113.17Y-80.59
X113.52Y-71.02
X113.52Y-72.52
X113.71Y-78.11
X114.77Y-81.89
X114.96Y-69.83
X115.88Y-40.89
X116.53Y-46.32
X116.64Y-130.24
X117.9Y-61.19
X118.2Y-121.93
X120.34Y-126.3
X120.36Y-128.14
X123.52Y-71.53
X123.52Y-73.03
X125.23Y-21.51
T4
X107.75Y-72.85
X107.75Y-74.12
X107.75Y-75.39
X107.75Y-76.66
X107.75Y-77.93
X107.75Y-79.2
X108.175Y-144.59
X108.716Y-145.739
X109.256Y-146.888
X109.797Y-148.037
X110.338Y-149.187
X110.879Y-150.336
X125.375Y-75.39
X125.375Y-76.66
X125.375Y-77.93
X125.375Y-79.2
X125.81Y-99.56
X125.81Y-100.83
X125.81Y-102.1
X125.81Y-103.37
T5
X126.05Y-125.065
X126.05Y-130.065
T6
X113.25Y-34.59
X113.25Y-37.13
X113.25Y-39.67
X113.25Y-42.21
X113.25Y-44.75
X113.25Y-47.29
X113.25Y-49.83
X113.25Y-52.37
X113.25Y-54.91
X113.25Y-57.45
X113.25Y-59.99
X123.41Y-34.59
X123.41Y-37.13
X123.41Y-39.67
X123.41Y-42.21
X123.41Y-44.75
X123.41Y-47.29
X123.41Y-49.83
X123.41Y-52.37
X123.41Y-54.91
X123.41Y-57.45
X123.41Y-59.99
T7
X105.42Y-118.71
X107.96Y-118.71
X110.5Y-118.71
X112.11Y-93.15
X112.11Y-95.69
X112.11Y-98.23
X112.11Y-100.77
X112.11Y-103.31
X112.11Y-105.85
X112.11Y-108.39
X112.11Y-110.93
X113.04Y-118.71
T8
X118.344Y-69.336
T9
X106.712Y-133.843
X118.344Y-22.044
X125.808Y-119.835
T3
X128.35Y-124.065G85X129.15Y-124.065
G05
X129.15Y-131.065G85X128.35Y-131.065
G05
T0
M30
