G04 #@! TF.FileFunction,Soldermask,Bot*
%FSLAX46Y46*%
G04 Gerber Fmt 4.6, Leading zero omitted, Abs format (unit mm)*
G04 Created by KiCad (PCBNEW 4.0.6-e0-6349~53~ubuntu16.04.1) date Thu Nov 23 18:30:10 2017*
%MOMM*%
%LPD*%
G01*
G04 APERTURE LIST*
%ADD10C,0.100000*%
%ADD11R,1.797000X1.797000*%
%ADD12C,1.797000*%
%ADD13C,0.900000*%
%ADD14R,1.200000X1.150000*%
%ADD15O,0.600000X1.800000*%
%ADD16O,1.800000X0.600000*%
%ADD17R,4.800000X4.800000*%
%ADD18R,1.500000X1.400000*%
%ADD19C,1.400000*%
%ADD20C,2.400000*%
%ADD21R,1.700480X2.800300*%
%ADD22R,3.999180X2.599640*%
%ADD23R,1.650000X1.400000*%
%ADD24R,1.400000X1.650000*%
%ADD25R,1.600000X1.600000*%
%ADD26R,2.100000X2.100000*%
%ADD27O,2.100000X2.100000*%
%ADD28R,1.400000X1.400000*%
%ADD29O,1.400000X1.400000*%
%ADD30R,1.600000X1.300000*%
%ADD31C,2.600000*%
%ADD32R,1.400000X2.200000*%
%ADD33R,2.300000X1.600000*%
%ADD34R,1.850000X2.400000*%
%ADD35R,2.200000X0.800000*%
%ADD36R,2.300000X2.700000*%
%ADD37C,4.400000*%
%ADD38R,0.650000X1.900000*%
%ADD39R,1.000000X0.900000*%
%ADD40R,0.900000X1.000000*%
%ADD41R,1.150000X1.200000*%
%ADD42R,1.100000X1.700000*%
%ADD43R,1.700000X1.100000*%
%ADD44R,1.300000X1.200000*%
%ADD45R,1.200000X1.300000*%
G04 APERTURE END LIST*
D10*
D11*
X123410000Y-59990000D03*
D12*
X123410000Y-57450000D03*
X123410000Y-54910000D03*
X123410000Y-52370000D03*
X123410000Y-49830000D03*
X123410000Y-47290000D03*
X123410000Y-44750000D03*
X123410000Y-42210000D03*
X123410000Y-39670000D03*
X123410000Y-37130000D03*
X123410000Y-34590000D03*
X113250000Y-34590000D03*
X113250000Y-37130000D03*
X113250000Y-39670000D03*
X113250000Y-42210000D03*
X113250000Y-44750000D03*
X113250000Y-47290000D03*
X113250000Y-49830000D03*
X113250000Y-52370000D03*
X113250000Y-54910000D03*
X113250000Y-57450000D03*
X113250000Y-59990000D03*
D13*
X117740000Y-127220000D03*
X120230000Y-76980000D03*
X119080000Y-76980000D03*
X117930000Y-76980000D03*
X116780000Y-76980000D03*
X120230000Y-75830000D03*
X119080000Y-75830000D03*
X117930000Y-75830000D03*
X116780000Y-75830000D03*
X120230000Y-74680000D03*
X119080000Y-74680000D03*
X117930000Y-74680000D03*
X116780000Y-74680000D03*
X120230000Y-73530000D03*
X119080000Y-73530000D03*
X117930000Y-73530000D03*
D14*
X115880000Y-40890000D03*
X117380000Y-40890000D03*
D15*
X116300000Y-71950000D03*
X116700000Y-71950000D03*
X117100000Y-71950000D03*
X117500000Y-71950000D03*
X117900000Y-71950000D03*
X118300000Y-71950000D03*
X118700000Y-71950000D03*
X119100000Y-71950000D03*
X119500000Y-71950000D03*
X119900000Y-71950000D03*
X120300000Y-71950000D03*
X120700000Y-71950000D03*
D16*
X121800000Y-73050000D03*
X121800000Y-73450000D03*
X121800000Y-73850000D03*
X121800000Y-74250000D03*
X121800000Y-74650000D03*
X121800000Y-75050000D03*
X121800000Y-75450000D03*
X121800000Y-75850000D03*
X121800000Y-76250000D03*
X121800000Y-76650000D03*
X121800000Y-77050000D03*
X121800000Y-77450000D03*
D15*
X120700000Y-78550000D03*
X120300000Y-78550000D03*
X119900000Y-78550000D03*
X119500000Y-78550000D03*
X119100000Y-78550000D03*
X118700000Y-78550000D03*
X118300000Y-78550000D03*
X117900000Y-78550000D03*
X117500000Y-78550000D03*
X117100000Y-78550000D03*
X116700000Y-78550000D03*
X116300000Y-78550000D03*
D16*
X115200000Y-77450000D03*
X115200000Y-77050000D03*
X115200000Y-76650000D03*
X115200000Y-76250000D03*
X115200000Y-75850000D03*
X115200000Y-75450000D03*
X115200000Y-75050000D03*
X115200000Y-74650000D03*
X115200000Y-74250000D03*
X115200000Y-73850000D03*
X115200000Y-73450000D03*
X115200000Y-73050000D03*
D17*
X118500000Y-75250000D03*
D18*
X113170000Y-81890000D03*
X113170000Y-80590000D03*
X114770000Y-81890000D03*
X114770000Y-80590000D03*
D10*
G36*
X107839667Y-145521424D02*
X107243576Y-144254667D01*
X108510333Y-143658576D01*
X109106424Y-144925333D01*
X107839667Y-145521424D01*
X107839667Y-145521424D01*
G37*
D19*
X108715740Y-145739130D02*
X108715740Y-145739130D01*
X109256479Y-146888261D02*
X109256479Y-146888261D01*
X109797219Y-148037391D02*
X109797219Y-148037391D01*
X110337959Y-149186521D02*
X110337959Y-149186521D01*
X110878699Y-150335652D02*
X110878699Y-150335652D01*
D20*
X118343743Y-69335858D03*
D21*
X107303760Y-124396200D03*
X109605000Y-124396200D03*
X111906240Y-124396200D03*
D22*
X109605000Y-130593800D03*
D23*
X106960000Y-81070000D03*
X106960000Y-83070000D03*
D24*
X111955000Y-121825000D03*
X109955000Y-121825000D03*
X109675000Y-133415000D03*
X111675000Y-133415000D03*
D25*
X107720000Y-66320000D03*
X107720000Y-64120000D03*
D26*
X112110000Y-93150000D03*
D27*
X112110000Y-95690000D03*
X112110000Y-98230000D03*
X112110000Y-100770000D03*
X112110000Y-103310000D03*
X112110000Y-105850000D03*
X112110000Y-108390000D03*
X112110000Y-110930000D03*
D28*
X125810000Y-99560000D03*
D29*
X125810000Y-100830000D03*
X125810000Y-102100000D03*
X125810000Y-103370000D03*
D30*
X120825000Y-117740000D03*
X123025000Y-117740000D03*
D31*
X118343743Y-22043858D03*
X106711973Y-133843201D03*
X125807736Y-119834648D03*
D24*
X110140000Y-54420000D03*
X108140000Y-54420000D03*
X120340000Y-126310000D03*
X122340000Y-126310000D03*
X120340000Y-128130000D03*
X122340000Y-128130000D03*
D23*
X107740000Y-67960000D03*
X107740000Y-69960000D03*
D32*
X123860000Y-86830000D03*
X127060000Y-86830000D03*
D28*
X125375000Y-79200000D03*
D29*
X125375000Y-77930000D03*
X125375000Y-76660000D03*
X125375000Y-75390000D03*
D28*
X107750000Y-79200000D03*
D29*
X107750000Y-77930000D03*
X107750000Y-76660000D03*
X107750000Y-75390000D03*
X107750000Y-74120000D03*
X107750000Y-72850000D03*
D33*
X128700000Y-128565000D03*
D34*
X126050000Y-124565000D03*
D35*
X125800000Y-126915000D03*
X125800000Y-126265000D03*
X125800000Y-128865000D03*
X125800000Y-128215000D03*
X125800000Y-127565000D03*
D34*
X126050000Y-130565000D03*
D33*
X128700000Y-126565000D03*
D36*
X128750000Y-124565000D03*
X128750000Y-130565000D03*
D26*
X113040000Y-118710000D03*
D27*
X110500000Y-118710000D03*
X107960000Y-118710000D03*
X105420000Y-118710000D03*
D37*
X109410000Y-21900000D03*
D20*
X125230000Y-21510000D03*
D38*
X117750000Y-55515000D03*
X117750000Y-59365000D03*
X117250000Y-55515000D03*
X117250000Y-59365000D03*
X116750000Y-55515000D03*
X116750000Y-59365000D03*
X116250000Y-55515000D03*
X116250000Y-59365000D03*
D39*
X123000000Y-99560000D03*
X122160000Y-99560000D03*
D40*
X111590000Y-81970000D03*
X111590000Y-80870000D03*
D39*
X114380000Y-79300000D03*
X113280000Y-79300000D03*
X119410000Y-79960000D03*
X118310000Y-79960000D03*
D41*
X114960000Y-71330000D03*
X114960000Y-69830000D03*
X123520000Y-73030000D03*
X123520000Y-71530000D03*
D40*
X117240000Y-80480000D03*
X117240000Y-81580000D03*
D14*
X113710000Y-78110000D03*
X112210000Y-78110000D03*
D41*
X113520000Y-72520000D03*
X113520000Y-71020000D03*
D14*
X113510000Y-73820000D03*
X112010000Y-73820000D03*
D23*
X125920000Y-58590000D03*
X125920000Y-60590000D03*
D14*
X108140000Y-52870000D03*
X109640000Y-52870000D03*
X127200000Y-122370000D03*
X125700000Y-122370000D03*
D41*
X123700000Y-126530000D03*
X123700000Y-125030000D03*
X123700000Y-127900000D03*
X123700000Y-129400000D03*
D40*
X119390000Y-83670000D03*
X119390000Y-84770000D03*
D41*
X117900000Y-61190000D03*
X117900000Y-62690000D03*
D14*
X117240000Y-53800000D03*
X118740000Y-53800000D03*
D41*
X114910000Y-58210000D03*
X114910000Y-56710000D03*
D40*
X119410000Y-82060000D03*
X119410000Y-80960000D03*
D39*
X118250000Y-85750000D03*
X119350000Y-85750000D03*
X119350000Y-86660000D03*
X120450000Y-86660000D03*
D42*
X117760000Y-42530000D03*
X115860000Y-42530000D03*
X115840000Y-44450000D03*
X117740000Y-44450000D03*
D43*
X119440000Y-44420000D03*
X119440000Y-46320000D03*
X121290000Y-46320000D03*
X121290000Y-44420000D03*
D44*
X110130000Y-56220000D03*
X110130000Y-58120000D03*
X108130000Y-57170000D03*
D45*
X117480000Y-48320000D03*
X115580000Y-48320000D03*
X116530000Y-46320000D03*
D41*
X114980000Y-53960000D03*
X114980000Y-55460000D03*
X114990000Y-59460000D03*
X114990000Y-60960000D03*
D13*
X116780000Y-73530000D03*
X116110000Y-127200000D03*
M02*
