G04 #@! TF.FileFunction,Legend,Bot*
%FSLAX46Y46*%
G04 Gerber Fmt 4.6, Leading zero omitted, Abs format (unit mm)*
G04 Created by KiCad (PCBNEW 4.0.6-e0-6349~53~ubuntu16.04.1) date Thu Nov 23 18:30:10 2017*
%MOMM*%
%LPD*%
G01*
G04 APERTURE LIST*
%ADD10C,0.100000*%
%ADD11C,0.200000*%
%ADD12C,0.125000*%
%ADD13C,0.150000*%
%ADD14C,0.050000*%
%ADD15C,0.120000*%
%ADD16C,0.040000*%
%ADD17C,0.074930*%
%ADD18C,0.076200*%
%ADD19C,0.062500*%
G04 APERTURE END LIST*
D10*
D11*
X119800000Y-88625000D02*
X119800000Y-88575000D01*
X128050000Y-88625000D02*
X119800000Y-88625000D01*
X128050000Y-80625000D02*
X128050000Y-88625000D01*
X119775000Y-87100000D02*
X119775000Y-83350000D01*
X105575000Y-88650000D02*
X119775000Y-88650000D01*
X105575000Y-83400000D02*
X105575000Y-88650000D01*
X105343743Y-83400000D02*
X122500000Y-83400000D01*
D12*
X122873810Y-83607142D02*
X122850000Y-83583332D01*
X122826190Y-83535713D01*
X122826190Y-83416666D01*
X122850000Y-83369047D01*
X122873810Y-83345237D01*
X122921429Y-83321428D01*
X122969048Y-83321428D01*
X123040476Y-83345237D01*
X123326190Y-83630951D01*
X123326190Y-83321428D01*
X123278571Y-83107142D02*
X123302381Y-83083333D01*
X123326190Y-83107142D01*
X123302381Y-83130952D01*
X123278571Y-83107142D01*
X123326190Y-83107142D01*
X123040476Y-82797619D02*
X123016667Y-82845238D01*
X122992857Y-82869047D01*
X122945238Y-82892857D01*
X122921429Y-82892857D01*
X122873810Y-82869047D01*
X122850000Y-82845238D01*
X122826190Y-82797619D01*
X122826190Y-82702381D01*
X122850000Y-82654762D01*
X122873810Y-82630952D01*
X122921429Y-82607143D01*
X122945238Y-82607143D01*
X122992857Y-82630952D01*
X123016667Y-82654762D01*
X123040476Y-82702381D01*
X123040476Y-82797619D01*
X123064286Y-82845238D01*
X123088095Y-82869047D01*
X123135714Y-82892857D01*
X123230952Y-82892857D01*
X123278571Y-82869047D01*
X123302381Y-82845238D01*
X123326190Y-82797619D01*
X123326190Y-82702381D01*
X123302381Y-82654762D01*
X123278571Y-82630952D01*
X123230952Y-82607143D01*
X123135714Y-82607143D01*
X123088095Y-82630952D01*
X123064286Y-82654762D01*
X123040476Y-82702381D01*
X123326190Y-82011905D02*
X122992857Y-82011905D01*
X123040476Y-82011905D02*
X123016667Y-81988096D01*
X122992857Y-81940477D01*
X122992857Y-81869048D01*
X123016667Y-81821429D01*
X123064286Y-81797620D01*
X123326190Y-81797620D01*
X123064286Y-81797620D02*
X123016667Y-81773810D01*
X122992857Y-81726191D01*
X122992857Y-81654763D01*
X123016667Y-81607143D01*
X123064286Y-81583334D01*
X123326190Y-81583334D01*
X123326190Y-81345238D02*
X122992857Y-81345238D01*
X123040476Y-81345238D02*
X123016667Y-81321429D01*
X122992857Y-81273810D01*
X122992857Y-81202381D01*
X123016667Y-81154762D01*
X123064286Y-81130953D01*
X123326190Y-81130953D01*
X123064286Y-81130953D02*
X123016667Y-81107143D01*
X122992857Y-81059524D01*
X122992857Y-80988096D01*
X123016667Y-80940476D01*
X123064286Y-80916667D01*
X123326190Y-80916667D01*
D11*
X122450000Y-80600000D02*
X128325000Y-80600000D01*
X122450000Y-83400000D02*
X122450000Y-80600000D01*
D12*
X111420953Y-86903810D02*
X111444763Y-86880000D01*
X111492382Y-86856190D01*
X111611429Y-86856190D01*
X111659048Y-86880000D01*
X111682858Y-86903810D01*
X111706667Y-86951429D01*
X111706667Y-86999048D01*
X111682858Y-87070476D01*
X111397144Y-87356190D01*
X111706667Y-87356190D01*
X111873334Y-86856190D02*
X112182857Y-86856190D01*
X112016191Y-87046667D01*
X112087619Y-87046667D01*
X112135238Y-87070476D01*
X112159048Y-87094286D01*
X112182857Y-87141905D01*
X112182857Y-87260952D01*
X112159048Y-87308571D01*
X112135238Y-87332381D01*
X112087619Y-87356190D01*
X111944762Y-87356190D01*
X111897143Y-87332381D01*
X111873334Y-87308571D01*
X112778095Y-87356190D02*
X112778095Y-87022857D01*
X112778095Y-87070476D02*
X112801904Y-87046667D01*
X112849523Y-87022857D01*
X112920952Y-87022857D01*
X112968571Y-87046667D01*
X112992380Y-87094286D01*
X112992380Y-87356190D01*
X112992380Y-87094286D02*
X113016190Y-87046667D01*
X113063809Y-87022857D01*
X113135237Y-87022857D01*
X113182857Y-87046667D01*
X113206666Y-87094286D01*
X113206666Y-87356190D01*
X113444762Y-87356190D02*
X113444762Y-87022857D01*
X113444762Y-87070476D02*
X113468571Y-87046667D01*
X113516190Y-87022857D01*
X113587619Y-87022857D01*
X113635238Y-87046667D01*
X113659047Y-87094286D01*
X113659047Y-87356190D01*
X113659047Y-87094286D02*
X113682857Y-87046667D01*
X113730476Y-87022857D01*
X113801904Y-87022857D01*
X113849524Y-87046667D01*
X113873333Y-87094286D01*
X113873333Y-87356190D01*
X106796190Y-86765237D02*
X106796190Y-87003332D01*
X107034286Y-87027142D01*
X107010476Y-87003332D01*
X106986667Y-86955713D01*
X106986667Y-86836666D01*
X107010476Y-86789047D01*
X107034286Y-86765237D01*
X107081905Y-86741428D01*
X107200952Y-86741428D01*
X107248571Y-86765237D01*
X107272381Y-86789047D01*
X107296190Y-86836666D01*
X107296190Y-86955713D01*
X107272381Y-87003332D01*
X107248571Y-87027142D01*
X107248571Y-86527142D02*
X107272381Y-86503333D01*
X107296190Y-86527142D01*
X107272381Y-86550952D01*
X107248571Y-86527142D01*
X107296190Y-86527142D01*
X106796190Y-86050952D02*
X106796190Y-86289047D01*
X107034286Y-86312857D01*
X107010476Y-86289047D01*
X106986667Y-86241428D01*
X106986667Y-86122381D01*
X107010476Y-86074762D01*
X107034286Y-86050952D01*
X107081905Y-86027143D01*
X107200952Y-86027143D01*
X107248571Y-86050952D01*
X107272381Y-86074762D01*
X107296190Y-86122381D01*
X107296190Y-86241428D01*
X107272381Y-86289047D01*
X107248571Y-86312857D01*
X107296190Y-85431905D02*
X106962857Y-85431905D01*
X107010476Y-85431905D02*
X106986667Y-85408096D01*
X106962857Y-85360477D01*
X106962857Y-85289048D01*
X106986667Y-85241429D01*
X107034286Y-85217620D01*
X107296190Y-85217620D01*
X107034286Y-85217620D02*
X106986667Y-85193810D01*
X106962857Y-85146191D01*
X106962857Y-85074763D01*
X106986667Y-85027143D01*
X107034286Y-85003334D01*
X107296190Y-85003334D01*
X107296190Y-84765238D02*
X106962857Y-84765238D01*
X107010476Y-84765238D02*
X106986667Y-84741429D01*
X106962857Y-84693810D01*
X106962857Y-84622381D01*
X106986667Y-84574762D01*
X107034286Y-84550953D01*
X107296190Y-84550953D01*
X107034286Y-84550953D02*
X106986667Y-84527143D01*
X106962857Y-84479524D01*
X106962857Y-84408096D01*
X106986667Y-84360476D01*
X107034286Y-84336667D01*
X107296190Y-84336667D01*
X111089048Y-85343333D02*
X111327143Y-85343333D01*
X111041429Y-85486190D02*
X111208096Y-84986190D01*
X111374762Y-85486190D01*
X111541429Y-85152857D02*
X111541429Y-85486190D01*
X111541429Y-85200476D02*
X111565238Y-85176667D01*
X111612857Y-85152857D01*
X111684286Y-85152857D01*
X111731905Y-85176667D01*
X111755714Y-85224286D01*
X111755714Y-85486190D01*
X111922381Y-85152857D02*
X112112857Y-85152857D01*
X111993810Y-84986190D02*
X111993810Y-85414762D01*
X112017619Y-85462381D01*
X112065238Y-85486190D01*
X112112857Y-85486190D01*
X112470000Y-85462381D02*
X112422381Y-85486190D01*
X112327143Y-85486190D01*
X112279524Y-85462381D01*
X112255714Y-85414762D01*
X112255714Y-85224286D01*
X112279524Y-85176667D01*
X112327143Y-85152857D01*
X112422381Y-85152857D01*
X112470000Y-85176667D01*
X112493809Y-85224286D01*
X112493809Y-85271905D01*
X112255714Y-85319524D01*
X112708095Y-85152857D02*
X112708095Y-85486190D01*
X112708095Y-85200476D02*
X112731904Y-85176667D01*
X112779523Y-85152857D01*
X112850952Y-85152857D01*
X112898571Y-85176667D01*
X112922380Y-85224286D01*
X112922380Y-85486190D01*
X113160476Y-85152857D02*
X113160476Y-85486190D01*
X113160476Y-85200476D02*
X113184285Y-85176667D01*
X113231904Y-85152857D01*
X113303333Y-85152857D01*
X113350952Y-85176667D01*
X113374761Y-85224286D01*
X113374761Y-85486190D01*
X113827142Y-85486190D02*
X113827142Y-85224286D01*
X113803333Y-85176667D01*
X113755714Y-85152857D01*
X113660476Y-85152857D01*
X113612857Y-85176667D01*
X113827142Y-85462381D02*
X113779523Y-85486190D01*
X113660476Y-85486190D01*
X113612857Y-85462381D01*
X113589047Y-85414762D01*
X113589047Y-85367143D01*
X113612857Y-85319524D01*
X113660476Y-85295714D01*
X113779523Y-85295714D01*
X113827142Y-85271905D01*
D13*
X115900000Y-72150000D02*
X115400000Y-72650000D01*
X115400000Y-77850000D02*
X115400000Y-78350000D01*
X115400000Y-78350000D02*
X115900000Y-78350000D01*
X121600000Y-72650000D02*
X121600000Y-72150000D01*
X121600000Y-72150000D02*
X121100000Y-72150000D01*
X121600000Y-77850000D02*
X121600000Y-78350000D01*
X121600000Y-78350000D02*
X121100000Y-78350000D01*
X115539791Y-80058900D02*
G75*
G03X115539791Y-80058900I-45791J0D01*
G01*
X115720000Y-79840000D02*
X115720000Y-82640000D01*
X115720000Y-82640000D02*
X112220000Y-82640000D01*
X115720000Y-79840000D02*
X112220000Y-79840000D01*
X112220000Y-79840000D02*
X112220000Y-82640000D01*
D14*
X111255000Y-125795000D02*
X111255000Y-123195000D01*
X111255000Y-123195000D02*
X112555000Y-123195000D01*
X112555000Y-123195000D02*
X112555000Y-125795000D01*
X108955000Y-125795000D02*
X108955000Y-123195000D01*
X108955000Y-123195000D02*
X110255000Y-123195000D01*
X110255000Y-123195000D02*
X110255000Y-125795000D01*
X106655000Y-125795000D02*
X106655000Y-123195000D01*
X106655000Y-123195000D02*
X107955000Y-123195000D01*
X107955000Y-123195000D02*
X107955000Y-125795000D01*
X107805000Y-129195000D02*
X107805000Y-131695000D01*
X107805000Y-131695000D02*
X111405000Y-131695000D01*
X111405000Y-131695000D02*
X111405000Y-129195000D01*
X106305540Y-129194260D02*
X112904460Y-129194260D01*
X112904460Y-129194260D02*
X112904460Y-125795740D01*
X112904460Y-125795740D02*
X106305540Y-125795740D01*
X106305540Y-125795740D02*
X106305540Y-129194260D01*
D15*
X107020000Y-63420000D02*
X108420000Y-63420000D01*
X108420000Y-63420000D02*
X108420000Y-66220000D01*
X107020000Y-63420000D02*
X107020000Y-66220000D01*
D13*
X124621800Y-86830000D02*
X125053600Y-86830000D01*
X123146421Y-85877500D02*
G75*
G03X123146421Y-85877500I-35921J0D01*
G01*
X122860000Y-88030000D02*
X122860000Y-85630000D01*
X122860000Y-85630000D02*
X128060000Y-85630000D01*
X128060000Y-85630000D02*
X128060000Y-88030000D01*
X122860000Y-88030000D02*
X128060000Y-88030000D01*
D15*
X125700000Y-123665000D02*
X125700000Y-124115000D01*
X127550000Y-123665000D02*
X125700000Y-123665000D01*
X130100000Y-131465000D02*
X129850000Y-131465000D01*
X130100000Y-123665000D02*
X129850000Y-123665000D01*
X127550000Y-131465000D02*
X125700000Y-131465000D01*
X125700000Y-131465000D02*
X125700000Y-131015000D01*
D10*
X111825038Y-21900000D02*
G75*
G03X111825038Y-21900000I-2415038J0D01*
G01*
X126544005Y-21510000D02*
G75*
G03X126544005Y-21510000I-1314005J0D01*
G01*
D13*
X118270000Y-57313000D02*
X117279400Y-58316300D01*
X118275000Y-56574400D02*
X118275000Y-57324400D01*
X118275000Y-56565000D02*
X115725000Y-56565000D01*
X115725000Y-58315000D02*
X115725000Y-56565000D01*
X115725000Y-58315000D02*
X117275000Y-58315000D01*
D15*
X108370000Y-58750000D02*
X109830000Y-58750000D01*
X114950000Y-46560000D02*
X114950000Y-48020000D01*
D12*
X115098571Y-40538572D02*
X115122381Y-40514762D01*
X115146190Y-40443334D01*
X115146190Y-40395715D01*
X115122381Y-40324286D01*
X115074762Y-40276667D01*
X115027143Y-40252858D01*
X114931905Y-40229048D01*
X114860476Y-40229048D01*
X114765238Y-40252858D01*
X114717619Y-40276667D01*
X114670000Y-40324286D01*
X114646190Y-40395715D01*
X114646190Y-40443334D01*
X114670000Y-40514762D01*
X114693810Y-40538572D01*
X114693810Y-40729048D02*
X114670000Y-40752858D01*
X114646190Y-40800477D01*
X114646190Y-40919524D01*
X114670000Y-40967143D01*
X114693810Y-40990953D01*
X114741429Y-41014762D01*
X114789048Y-41014762D01*
X114860476Y-40990953D01*
X115146190Y-40705239D01*
X115146190Y-41014762D01*
X114646190Y-41181429D02*
X114646190Y-41514762D01*
X115146190Y-41300476D01*
D16*
X122251429Y-77926786D02*
X122251429Y-78108929D01*
X122240714Y-78130357D01*
X122230000Y-78141071D01*
X122208571Y-78151786D01*
X122165714Y-78151786D01*
X122144286Y-78141071D01*
X122133571Y-78130357D01*
X122122857Y-78108929D01*
X122122857Y-77926786D01*
X122026429Y-77948214D02*
X122015715Y-77937500D01*
X121994286Y-77926786D01*
X121940715Y-77926786D01*
X121919286Y-77937500D01*
X121908572Y-77948214D01*
X121897857Y-77969643D01*
X121897857Y-77991071D01*
X121908572Y-78023214D01*
X122037143Y-78151786D01*
X121897857Y-78151786D01*
D12*
X111648094Y-79688095D02*
X111648094Y-79926190D01*
X111814761Y-79426190D02*
X111648094Y-79688095D01*
X111481428Y-79426190D01*
X111052857Y-79926190D02*
X111338571Y-79926190D01*
X111195714Y-79926190D02*
X111195714Y-79426190D01*
X111243333Y-79497619D01*
X111290952Y-79545238D01*
X111338571Y-79569048D01*
D17*
X109833358Y-128280828D02*
X109833358Y-128523458D01*
X109819086Y-128552003D01*
X109804813Y-128566275D01*
X109776269Y-128580548D01*
X109719179Y-128580548D01*
X109690634Y-128566275D01*
X109676362Y-128552003D01*
X109662090Y-128523458D01*
X109662090Y-128280828D01*
X109390915Y-128280828D02*
X109448004Y-128280828D01*
X109476549Y-128295100D01*
X109490821Y-128309372D01*
X109519366Y-128352190D01*
X109533638Y-128409279D01*
X109533638Y-128523458D01*
X109519366Y-128552003D01*
X109505094Y-128566275D01*
X109476549Y-128580548D01*
X109419459Y-128580548D01*
X109390915Y-128566275D01*
X109376642Y-128552003D01*
X109362370Y-128523458D01*
X109362370Y-128452096D01*
X109376642Y-128423551D01*
X109390915Y-128409279D01*
X109419459Y-128395007D01*
X109476549Y-128395007D01*
X109505094Y-128409279D01*
X109519366Y-128423551D01*
X109533638Y-128452096D01*
D18*
D17*
X110796744Y-127630588D02*
X110939468Y-127630588D01*
X110939468Y-127330868D01*
X110696838Y-127630588D02*
X110696838Y-127330868D01*
X110596931Y-127544953D01*
X110497025Y-127330868D01*
X110497025Y-127630588D01*
X110197305Y-127630588D02*
X110368573Y-127630588D01*
X110282939Y-127630588D02*
X110282939Y-127330868D01*
X110311484Y-127373685D01*
X110340029Y-127402230D01*
X110368573Y-127416502D01*
X109911857Y-127630588D02*
X110083125Y-127630588D01*
X109997491Y-127630588D02*
X109997491Y-127330868D01*
X110026036Y-127373685D01*
X110054581Y-127402230D01*
X110083125Y-127416502D01*
X109626409Y-127630588D02*
X109797677Y-127630588D01*
X109712043Y-127630588D02*
X109712043Y-127330868D01*
X109740588Y-127373685D01*
X109769133Y-127402230D01*
X109797677Y-127416502D01*
X109526502Y-127330868D02*
X109326689Y-127330868D01*
X109455140Y-127630588D01*
X109212509Y-127516409D02*
X108984151Y-127516409D01*
X108869972Y-127330868D02*
X108684431Y-127330868D01*
X108784338Y-127445047D01*
X108741520Y-127445047D01*
X108712976Y-127459319D01*
X108698703Y-127473591D01*
X108684431Y-127502136D01*
X108684431Y-127573498D01*
X108698703Y-127602043D01*
X108712976Y-127616315D01*
X108741520Y-127630588D01*
X108827155Y-127630588D01*
X108855699Y-127616315D01*
X108869972Y-127602043D01*
X108555979Y-127602043D02*
X108541707Y-127616315D01*
X108555979Y-127630588D01*
X108570251Y-127616315D01*
X108555979Y-127602043D01*
X108555979Y-127630588D01*
X108441800Y-127330868D02*
X108256259Y-127330868D01*
X108356166Y-127445047D01*
X108313348Y-127445047D01*
X108284804Y-127459319D01*
X108270531Y-127473591D01*
X108256259Y-127502136D01*
X108256259Y-127573498D01*
X108270531Y-127602043D01*
X108284804Y-127616315D01*
X108313348Y-127630588D01*
X108398983Y-127630588D01*
X108427527Y-127616315D01*
X108441800Y-127602043D01*
D12*
X108358571Y-82048572D02*
X108382381Y-82024762D01*
X108406190Y-81953334D01*
X108406190Y-81905715D01*
X108382381Y-81834286D01*
X108334762Y-81786667D01*
X108287143Y-81762858D01*
X108191905Y-81739048D01*
X108120476Y-81739048D01*
X108025238Y-81762858D01*
X107977619Y-81786667D01*
X107930000Y-81834286D01*
X107906190Y-81905715D01*
X107906190Y-81953334D01*
X107930000Y-82024762D01*
X107953810Y-82048572D01*
X108406190Y-82524762D02*
X108406190Y-82239048D01*
X108406190Y-82381905D02*
X107906190Y-82381905D01*
X107977619Y-82334286D01*
X108025238Y-82286667D01*
X108049048Y-82239048D01*
X107953810Y-82715238D02*
X107930000Y-82739048D01*
X107906190Y-82786667D01*
X107906190Y-82905714D01*
X107930000Y-82953333D01*
X107953810Y-82977143D01*
X108001429Y-83000952D01*
X108049048Y-83000952D01*
X108120476Y-82977143D01*
X108406190Y-82691429D01*
X108406190Y-83000952D01*
X109103571Y-121503572D02*
X109127381Y-121479762D01*
X109151190Y-121408334D01*
X109151190Y-121360715D01*
X109127381Y-121289286D01*
X109079762Y-121241667D01*
X109032143Y-121217858D01*
X108936905Y-121194048D01*
X108865476Y-121194048D01*
X108770238Y-121217858D01*
X108722619Y-121241667D01*
X108675000Y-121289286D01*
X108651190Y-121360715D01*
X108651190Y-121408334D01*
X108675000Y-121479762D01*
X108698810Y-121503572D01*
X109151190Y-121979762D02*
X109151190Y-121694048D01*
X109151190Y-121836905D02*
X108651190Y-121836905D01*
X108722619Y-121789286D01*
X108770238Y-121741667D01*
X108794048Y-121694048D01*
X108865476Y-122265476D02*
X108841667Y-122217857D01*
X108817857Y-122194048D01*
X108770238Y-122170238D01*
X108746429Y-122170238D01*
X108698810Y-122194048D01*
X108675000Y-122217857D01*
X108651190Y-122265476D01*
X108651190Y-122360714D01*
X108675000Y-122408333D01*
X108698810Y-122432143D01*
X108746429Y-122455952D01*
X108770238Y-122455952D01*
X108817857Y-122432143D01*
X108841667Y-122408333D01*
X108865476Y-122360714D01*
X108865476Y-122265476D01*
X108889286Y-122217857D01*
X108913095Y-122194048D01*
X108960714Y-122170238D01*
X109055952Y-122170238D01*
X109103571Y-122194048D01*
X109127381Y-122217857D01*
X109151190Y-122265476D01*
X109151190Y-122360714D01*
X109127381Y-122408333D01*
X109103571Y-122432143D01*
X109055952Y-122455952D01*
X108960714Y-122455952D01*
X108913095Y-122432143D01*
X108889286Y-122408333D01*
X108865476Y-122360714D01*
X110936428Y-134883571D02*
X110960238Y-134907381D01*
X111031666Y-134931190D01*
X111079285Y-134931190D01*
X111150714Y-134907381D01*
X111198333Y-134859762D01*
X111222142Y-134812143D01*
X111245952Y-134716905D01*
X111245952Y-134645476D01*
X111222142Y-134550238D01*
X111198333Y-134502619D01*
X111150714Y-134455000D01*
X111079285Y-134431190D01*
X111031666Y-134431190D01*
X110960238Y-134455000D01*
X110936428Y-134478810D01*
X110460238Y-134931190D02*
X110745952Y-134931190D01*
X110603095Y-134931190D02*
X110603095Y-134431190D01*
X110650714Y-134502619D01*
X110698333Y-134550238D01*
X110745952Y-134574048D01*
X110222143Y-134931190D02*
X110126905Y-134931190D01*
X110079286Y-134907381D01*
X110055476Y-134883571D01*
X110007857Y-134812143D01*
X109984048Y-134716905D01*
X109984048Y-134526429D01*
X110007857Y-134478810D01*
X110031667Y-134455000D01*
X110079286Y-134431190D01*
X110174524Y-134431190D01*
X110222143Y-134455000D01*
X110245952Y-134478810D01*
X110269762Y-134526429D01*
X110269762Y-134645476D01*
X110245952Y-134693095D01*
X110222143Y-134716905D01*
X110174524Y-134740714D01*
X110079286Y-134740714D01*
X110031667Y-134716905D01*
X110007857Y-134693095D01*
X109984048Y-134645476D01*
X108139047Y-62946190D02*
X108139047Y-62446190D01*
X108020000Y-62446190D01*
X107948571Y-62470000D01*
X107900952Y-62517619D01*
X107877143Y-62565238D01*
X107853333Y-62660476D01*
X107853333Y-62731905D01*
X107877143Y-62827143D01*
X107900952Y-62874762D01*
X107948571Y-62922381D01*
X108020000Y-62946190D01*
X108139047Y-62946190D01*
X107377143Y-62946190D02*
X107662857Y-62946190D01*
X107520000Y-62946190D02*
X107520000Y-62446190D01*
X107567619Y-62517619D01*
X107615238Y-62565238D01*
X107662857Y-62589048D01*
X119921190Y-117626667D02*
X119921190Y-117388572D01*
X119421190Y-117388572D01*
X119468810Y-117769524D02*
X119445000Y-117793334D01*
X119421190Y-117840953D01*
X119421190Y-117960000D01*
X119445000Y-118007619D01*
X119468810Y-118031429D01*
X119516429Y-118055238D01*
X119564048Y-118055238D01*
X119635476Y-118031429D01*
X119921190Y-117745715D01*
X119921190Y-118055238D01*
X111476190Y-54396667D02*
X111238095Y-54230000D01*
X111476190Y-54110953D02*
X110976190Y-54110953D01*
X110976190Y-54301429D01*
X111000000Y-54349048D01*
X111023810Y-54372857D01*
X111071429Y-54396667D01*
X111142857Y-54396667D01*
X111190476Y-54372857D01*
X111214286Y-54349048D01*
X111238095Y-54301429D01*
X111238095Y-54110953D01*
X111476190Y-54872857D02*
X111476190Y-54587143D01*
X111476190Y-54730000D02*
X110976190Y-54730000D01*
X111047619Y-54682381D01*
X111095238Y-54634762D01*
X111119048Y-54587143D01*
X121641428Y-125366190D02*
X121808095Y-125128095D01*
X121927142Y-125366190D02*
X121927142Y-124866190D01*
X121736666Y-124866190D01*
X121689047Y-124890000D01*
X121665238Y-124913810D01*
X121641428Y-124961429D01*
X121641428Y-125032857D01*
X121665238Y-125080476D01*
X121689047Y-125104286D01*
X121736666Y-125128095D01*
X121927142Y-125128095D01*
X121165238Y-125366190D02*
X121450952Y-125366190D01*
X121308095Y-125366190D02*
X121308095Y-124866190D01*
X121355714Y-124937619D01*
X121403333Y-124985238D01*
X121450952Y-125009048D01*
X120689048Y-125366190D02*
X120974762Y-125366190D01*
X120831905Y-125366190D02*
X120831905Y-124866190D01*
X120879524Y-124937619D01*
X120927143Y-124985238D01*
X120974762Y-125009048D01*
X121681428Y-129536190D02*
X121848095Y-129298095D01*
X121967142Y-129536190D02*
X121967142Y-129036190D01*
X121776666Y-129036190D01*
X121729047Y-129060000D01*
X121705238Y-129083810D01*
X121681428Y-129131429D01*
X121681428Y-129202857D01*
X121705238Y-129250476D01*
X121729047Y-129274286D01*
X121776666Y-129298095D01*
X121967142Y-129298095D01*
X121205238Y-129536190D02*
X121490952Y-129536190D01*
X121348095Y-129536190D02*
X121348095Y-129036190D01*
X121395714Y-129107619D01*
X121443333Y-129155238D01*
X121490952Y-129179048D01*
X121014762Y-129083810D02*
X120990952Y-129060000D01*
X120943333Y-129036190D01*
X120824286Y-129036190D01*
X120776667Y-129060000D01*
X120752857Y-129083810D01*
X120729048Y-129131429D01*
X120729048Y-129179048D01*
X120752857Y-129250476D01*
X121038571Y-129536190D01*
X120729048Y-129536190D01*
X108061428Y-71186190D02*
X108228095Y-70948095D01*
X108347142Y-71186190D02*
X108347142Y-70686190D01*
X108156666Y-70686190D01*
X108109047Y-70710000D01*
X108085238Y-70733810D01*
X108061428Y-70781429D01*
X108061428Y-70852857D01*
X108085238Y-70900476D01*
X108109047Y-70924286D01*
X108156666Y-70948095D01*
X108347142Y-70948095D01*
X107585238Y-71186190D02*
X107870952Y-71186190D01*
X107728095Y-71186190D02*
X107728095Y-70686190D01*
X107775714Y-70757619D01*
X107823333Y-70805238D01*
X107870952Y-70829048D01*
X107132857Y-70686190D02*
X107370952Y-70686190D01*
X107394762Y-70924286D01*
X107370952Y-70900476D01*
X107323333Y-70876667D01*
X107204286Y-70876667D01*
X107156667Y-70900476D01*
X107132857Y-70924286D01*
X107109048Y-70971905D01*
X107109048Y-71090952D01*
X107132857Y-71138571D01*
X107156667Y-71162381D01*
X107204286Y-71186190D01*
X107323333Y-71186190D01*
X107370952Y-71162381D01*
X107394762Y-71138571D01*
D19*
X127770966Y-85347667D02*
X127651918Y-85347667D01*
X127794775Y-85419095D02*
X127711442Y-85169095D01*
X127628109Y-85419095D01*
X127544775Y-85288143D02*
X127461442Y-85288143D01*
X127425728Y-85419095D02*
X127544775Y-85419095D01*
X127544775Y-85169095D01*
X127425728Y-85169095D01*
X127187633Y-85419095D02*
X127330490Y-85419095D01*
X127259061Y-85419095D02*
X127259061Y-85169095D01*
X127282871Y-85204810D01*
X127306680Y-85228619D01*
X127330490Y-85240524D01*
X124428495Y-130638424D02*
X124630876Y-130638424D01*
X124654686Y-130650329D01*
X124666590Y-130662233D01*
X124678495Y-130686043D01*
X124678495Y-130733662D01*
X124666590Y-130757471D01*
X124654686Y-130769376D01*
X124630876Y-130781281D01*
X124428495Y-130781281D01*
X124511829Y-131007472D02*
X124678495Y-131007472D01*
X124416590Y-130947948D02*
X124595162Y-130888424D01*
X124595162Y-131043186D01*
D14*
X110050952Y-24526190D02*
X109765238Y-24526190D01*
X109908095Y-25026190D02*
X109908095Y-24526190D01*
X109598571Y-25026190D02*
X109598571Y-24526190D01*
X109408095Y-24526190D01*
X109360476Y-24550000D01*
X109336667Y-24573810D01*
X109312857Y-24621429D01*
X109312857Y-24692857D01*
X109336667Y-24740476D01*
X109360476Y-24764286D01*
X109408095Y-24788095D01*
X109598571Y-24788095D01*
X108836667Y-25026190D02*
X109122381Y-25026190D01*
X108979524Y-25026190D02*
X108979524Y-24526190D01*
X109027143Y-24597619D01*
X109074762Y-24645238D01*
X109122381Y-24669048D01*
D10*
X125860952Y-23196190D02*
X125575238Y-23196190D01*
X125718095Y-23696190D02*
X125718095Y-23196190D01*
X125408571Y-23696190D02*
X125408571Y-23196190D01*
X125218095Y-23196190D01*
X125170476Y-23220000D01*
X125146667Y-23243810D01*
X125122857Y-23291429D01*
X125122857Y-23362857D01*
X125146667Y-23410476D01*
X125170476Y-23434286D01*
X125218095Y-23458095D01*
X125408571Y-23458095D01*
X124932381Y-23243810D02*
X124908571Y-23220000D01*
X124860952Y-23196190D01*
X124741905Y-23196190D01*
X124694286Y-23220000D01*
X124670476Y-23243810D01*
X124646667Y-23291429D01*
X124646667Y-23339048D01*
X124670476Y-23410476D01*
X124956190Y-23696190D01*
X124646667Y-23696190D01*
X118526190Y-57529048D02*
X118930952Y-57529048D01*
X118978571Y-57552857D01*
X119002381Y-57576667D01*
X119026190Y-57624286D01*
X119026190Y-57719524D01*
X119002381Y-57767143D01*
X118978571Y-57790952D01*
X118930952Y-57814762D01*
X118526190Y-57814762D01*
X118526190Y-58005239D02*
X118526190Y-58338572D01*
X119026190Y-58124286D01*
D14*
X122757752Y-98536890D02*
X122757752Y-98941652D01*
X122733943Y-98989271D01*
X122710133Y-99013081D01*
X122662514Y-99036890D01*
X122567276Y-99036890D01*
X122519657Y-99013081D01*
X122495848Y-98989271D01*
X122472038Y-98941652D01*
X122472038Y-98536890D01*
X122162514Y-98751176D02*
X122210133Y-98727367D01*
X122233942Y-98703557D01*
X122257752Y-98655938D01*
X122257752Y-98632129D01*
X122233942Y-98584510D01*
X122210133Y-98560700D01*
X122162514Y-98536890D01*
X122067276Y-98536890D01*
X122019657Y-98560700D01*
X121995847Y-98584510D01*
X121972038Y-98632129D01*
X121972038Y-98655938D01*
X121995847Y-98703557D01*
X122019657Y-98727367D01*
X122067276Y-98751176D01*
X122162514Y-98751176D01*
X122210133Y-98774986D01*
X122233942Y-98798795D01*
X122257752Y-98846414D01*
X122257752Y-98941652D01*
X122233942Y-98989271D01*
X122210133Y-99013081D01*
X122162514Y-99036890D01*
X122067276Y-99036890D01*
X122019657Y-99013081D01*
X121995847Y-98989271D01*
X121972038Y-98941652D01*
X121972038Y-98846414D01*
X121995847Y-98798795D01*
X122019657Y-98774986D01*
X122067276Y-98751176D01*
D12*
X110908571Y-81326667D02*
X110932381Y-81302857D01*
X110956190Y-81231429D01*
X110956190Y-81183810D01*
X110932381Y-81112381D01*
X110884762Y-81064762D01*
X110837143Y-81040953D01*
X110741905Y-81017143D01*
X110670476Y-81017143D01*
X110575238Y-81040953D01*
X110527619Y-81064762D01*
X110480000Y-81112381D01*
X110456190Y-81183810D01*
X110456190Y-81231429D01*
X110480000Y-81302857D01*
X110503810Y-81326667D01*
X110956190Y-81802857D02*
X110956190Y-81517143D01*
X110956190Y-81660000D02*
X110456190Y-81660000D01*
X110527619Y-81612381D01*
X110575238Y-81564762D01*
X110599048Y-81517143D01*
X112618571Y-79156667D02*
X112642381Y-79132857D01*
X112666190Y-79061429D01*
X112666190Y-79013810D01*
X112642381Y-78942381D01*
X112594762Y-78894762D01*
X112547143Y-78870953D01*
X112451905Y-78847143D01*
X112380476Y-78847143D01*
X112285238Y-78870953D01*
X112237619Y-78894762D01*
X112190000Y-78942381D01*
X112166190Y-79013810D01*
X112166190Y-79061429D01*
X112190000Y-79132857D01*
X112213810Y-79156667D01*
X112213810Y-79347143D02*
X112190000Y-79370953D01*
X112166190Y-79418572D01*
X112166190Y-79537619D01*
X112190000Y-79585238D01*
X112213810Y-79609048D01*
X112261429Y-79632857D01*
X112309048Y-79632857D01*
X112380476Y-79609048D01*
X112666190Y-79323334D01*
X112666190Y-79632857D01*
X120488571Y-79876667D02*
X120512381Y-79852857D01*
X120536190Y-79781429D01*
X120536190Y-79733810D01*
X120512381Y-79662381D01*
X120464762Y-79614762D01*
X120417143Y-79590953D01*
X120321905Y-79567143D01*
X120250476Y-79567143D01*
X120155238Y-79590953D01*
X120107619Y-79614762D01*
X120060000Y-79662381D01*
X120036190Y-79733810D01*
X120036190Y-79781429D01*
X120060000Y-79852857D01*
X120083810Y-79876667D01*
X120036190Y-80043334D02*
X120036190Y-80352857D01*
X120226667Y-80186191D01*
X120226667Y-80257619D01*
X120250476Y-80305238D01*
X120274286Y-80329048D01*
X120321905Y-80352857D01*
X120440952Y-80352857D01*
X120488571Y-80329048D01*
X120512381Y-80305238D01*
X120536190Y-80257619D01*
X120536190Y-80114762D01*
X120512381Y-80067143D01*
X120488571Y-80043334D01*
X115103333Y-69008571D02*
X115127143Y-69032381D01*
X115198571Y-69056190D01*
X115246190Y-69056190D01*
X115317619Y-69032381D01*
X115365238Y-68984762D01*
X115389047Y-68937143D01*
X115412857Y-68841905D01*
X115412857Y-68770476D01*
X115389047Y-68675238D01*
X115365238Y-68627619D01*
X115317619Y-68580000D01*
X115246190Y-68556190D01*
X115198571Y-68556190D01*
X115127143Y-68580000D01*
X115103333Y-68603810D01*
X114674762Y-68722857D02*
X114674762Y-69056190D01*
X114793809Y-68532381D02*
X114912857Y-68889524D01*
X114603333Y-68889524D01*
X124698571Y-72196667D02*
X124722381Y-72172857D01*
X124746190Y-72101429D01*
X124746190Y-72053810D01*
X124722381Y-71982381D01*
X124674762Y-71934762D01*
X124627143Y-71910953D01*
X124531905Y-71887143D01*
X124460476Y-71887143D01*
X124365238Y-71910953D01*
X124317619Y-71934762D01*
X124270000Y-71982381D01*
X124246190Y-72053810D01*
X124246190Y-72101429D01*
X124270000Y-72172857D01*
X124293810Y-72196667D01*
X124246190Y-72649048D02*
X124246190Y-72410953D01*
X124484286Y-72387143D01*
X124460476Y-72410953D01*
X124436667Y-72458572D01*
X124436667Y-72577619D01*
X124460476Y-72625238D01*
X124484286Y-72649048D01*
X124531905Y-72672857D01*
X124650952Y-72672857D01*
X124698571Y-72649048D01*
X124722381Y-72625238D01*
X124746190Y-72577619D01*
X124746190Y-72458572D01*
X124722381Y-72410953D01*
X124698571Y-72387143D01*
X117353333Y-82638571D02*
X117377143Y-82662381D01*
X117448571Y-82686190D01*
X117496190Y-82686190D01*
X117567619Y-82662381D01*
X117615238Y-82614762D01*
X117639047Y-82567143D01*
X117662857Y-82471905D01*
X117662857Y-82400476D01*
X117639047Y-82305238D01*
X117615238Y-82257619D01*
X117567619Y-82210000D01*
X117496190Y-82186190D01*
X117448571Y-82186190D01*
X117377143Y-82210000D01*
X117353333Y-82233810D01*
X117186666Y-82186190D02*
X116853333Y-82186190D01*
X117067619Y-82686190D01*
X111418571Y-78056667D02*
X111442381Y-78032857D01*
X111466190Y-77961429D01*
X111466190Y-77913810D01*
X111442381Y-77842381D01*
X111394762Y-77794762D01*
X111347143Y-77770953D01*
X111251905Y-77747143D01*
X111180476Y-77747143D01*
X111085238Y-77770953D01*
X111037619Y-77794762D01*
X110990000Y-77842381D01*
X110966190Y-77913810D01*
X110966190Y-77961429D01*
X110990000Y-78032857D01*
X111013810Y-78056667D01*
X111180476Y-78342381D02*
X111156667Y-78294762D01*
X111132857Y-78270953D01*
X111085238Y-78247143D01*
X111061429Y-78247143D01*
X111013810Y-78270953D01*
X110990000Y-78294762D01*
X110966190Y-78342381D01*
X110966190Y-78437619D01*
X110990000Y-78485238D01*
X111013810Y-78509048D01*
X111061429Y-78532857D01*
X111085238Y-78532857D01*
X111132857Y-78509048D01*
X111156667Y-78485238D01*
X111180476Y-78437619D01*
X111180476Y-78342381D01*
X111204286Y-78294762D01*
X111228095Y-78270953D01*
X111275714Y-78247143D01*
X111370952Y-78247143D01*
X111418571Y-78270953D01*
X111442381Y-78294762D01*
X111466190Y-78342381D01*
X111466190Y-78437619D01*
X111442381Y-78485238D01*
X111418571Y-78509048D01*
X111370952Y-78532857D01*
X111275714Y-78532857D01*
X111228095Y-78509048D01*
X111204286Y-78485238D01*
X111180476Y-78437619D01*
X113633333Y-70248571D02*
X113657143Y-70272381D01*
X113728571Y-70296190D01*
X113776190Y-70296190D01*
X113847619Y-70272381D01*
X113895238Y-70224762D01*
X113919047Y-70177143D01*
X113942857Y-70081905D01*
X113942857Y-70010476D01*
X113919047Y-69915238D01*
X113895238Y-69867619D01*
X113847619Y-69820000D01*
X113776190Y-69796190D01*
X113728571Y-69796190D01*
X113657143Y-69820000D01*
X113633333Y-69843810D01*
X113395238Y-70296190D02*
X113300000Y-70296190D01*
X113252381Y-70272381D01*
X113228571Y-70248571D01*
X113180952Y-70177143D01*
X113157143Y-70081905D01*
X113157143Y-69891429D01*
X113180952Y-69843810D01*
X113204762Y-69820000D01*
X113252381Y-69796190D01*
X113347619Y-69796190D01*
X113395238Y-69820000D01*
X113419047Y-69843810D01*
X113442857Y-69891429D01*
X113442857Y-70010476D01*
X113419047Y-70058095D01*
X113395238Y-70081905D01*
X113347619Y-70105714D01*
X113252381Y-70105714D01*
X113204762Y-70081905D01*
X113180952Y-70058095D01*
X113157143Y-70010476D01*
X111168571Y-73008572D02*
X111192381Y-72984762D01*
X111216190Y-72913334D01*
X111216190Y-72865715D01*
X111192381Y-72794286D01*
X111144762Y-72746667D01*
X111097143Y-72722858D01*
X111001905Y-72699048D01*
X110930476Y-72699048D01*
X110835238Y-72722858D01*
X110787619Y-72746667D01*
X110740000Y-72794286D01*
X110716190Y-72865715D01*
X110716190Y-72913334D01*
X110740000Y-72984762D01*
X110763810Y-73008572D01*
X111216190Y-73484762D02*
X111216190Y-73199048D01*
X111216190Y-73341905D02*
X110716190Y-73341905D01*
X110787619Y-73294286D01*
X110835238Y-73246667D01*
X110859048Y-73199048D01*
X110716190Y-73794286D02*
X110716190Y-73841905D01*
X110740000Y-73889524D01*
X110763810Y-73913333D01*
X110811429Y-73937143D01*
X110906667Y-73960952D01*
X111025714Y-73960952D01*
X111120952Y-73937143D01*
X111168571Y-73913333D01*
X111192381Y-73889524D01*
X111216190Y-73841905D01*
X111216190Y-73794286D01*
X111192381Y-73746667D01*
X111168571Y-73722857D01*
X111120952Y-73699048D01*
X111025714Y-73675238D01*
X110906667Y-73675238D01*
X110811429Y-73699048D01*
X110763810Y-73722857D01*
X110740000Y-73746667D01*
X110716190Y-73794286D01*
X126321428Y-57628571D02*
X126345238Y-57652381D01*
X126416666Y-57676190D01*
X126464285Y-57676190D01*
X126535714Y-57652381D01*
X126583333Y-57604762D01*
X126607142Y-57557143D01*
X126630952Y-57461905D01*
X126630952Y-57390476D01*
X126607142Y-57295238D01*
X126583333Y-57247619D01*
X126535714Y-57200000D01*
X126464285Y-57176190D01*
X126416666Y-57176190D01*
X126345238Y-57200000D01*
X126321428Y-57223810D01*
X125845238Y-57676190D02*
X126130952Y-57676190D01*
X125988095Y-57676190D02*
X125988095Y-57176190D01*
X126035714Y-57247619D01*
X126083333Y-57295238D01*
X126130952Y-57319048D01*
X125369048Y-57676190D02*
X125654762Y-57676190D01*
X125511905Y-57676190D02*
X125511905Y-57176190D01*
X125559524Y-57247619D01*
X125607143Y-57295238D01*
X125654762Y-57319048D01*
X110908571Y-52578572D02*
X110932381Y-52554762D01*
X110956190Y-52483334D01*
X110956190Y-52435715D01*
X110932381Y-52364286D01*
X110884762Y-52316667D01*
X110837143Y-52292858D01*
X110741905Y-52269048D01*
X110670476Y-52269048D01*
X110575238Y-52292858D01*
X110527619Y-52316667D01*
X110480000Y-52364286D01*
X110456190Y-52435715D01*
X110456190Y-52483334D01*
X110480000Y-52554762D01*
X110503810Y-52578572D01*
X110956190Y-53054762D02*
X110956190Y-52769048D01*
X110956190Y-52911905D02*
X110456190Y-52911905D01*
X110527619Y-52864286D01*
X110575238Y-52816667D01*
X110599048Y-52769048D01*
X110456190Y-53221429D02*
X110456190Y-53530952D01*
X110646667Y-53364286D01*
X110646667Y-53435714D01*
X110670476Y-53483333D01*
X110694286Y-53507143D01*
X110741905Y-53530952D01*
X110860952Y-53530952D01*
X110908571Y-53507143D01*
X110932381Y-53483333D01*
X110956190Y-53435714D01*
X110956190Y-53292857D01*
X110932381Y-53245238D01*
X110908571Y-53221429D01*
X128418571Y-121898572D02*
X128442381Y-121874762D01*
X128466190Y-121803334D01*
X128466190Y-121755715D01*
X128442381Y-121684286D01*
X128394762Y-121636667D01*
X128347143Y-121612858D01*
X128251905Y-121589048D01*
X128180476Y-121589048D01*
X128085238Y-121612858D01*
X128037619Y-121636667D01*
X127990000Y-121684286D01*
X127966190Y-121755715D01*
X127966190Y-121803334D01*
X127990000Y-121874762D01*
X128013810Y-121898572D01*
X128466190Y-122374762D02*
X128466190Y-122089048D01*
X128466190Y-122231905D02*
X127966190Y-122231905D01*
X128037619Y-122184286D01*
X128085238Y-122136667D01*
X128109048Y-122089048D01*
X127966190Y-122827143D02*
X127966190Y-122589048D01*
X128204286Y-122565238D01*
X128180476Y-122589048D01*
X128156667Y-122636667D01*
X128156667Y-122755714D01*
X128180476Y-122803333D01*
X128204286Y-122827143D01*
X128251905Y-122850952D01*
X128370952Y-122850952D01*
X128418571Y-122827143D01*
X128442381Y-122803333D01*
X128466190Y-122755714D01*
X128466190Y-122636667D01*
X128442381Y-122589048D01*
X128418571Y-122565238D01*
X124031428Y-124178571D02*
X124055238Y-124202381D01*
X124126666Y-124226190D01*
X124174285Y-124226190D01*
X124245714Y-124202381D01*
X124293333Y-124154762D01*
X124317142Y-124107143D01*
X124340952Y-124011905D01*
X124340952Y-123940476D01*
X124317142Y-123845238D01*
X124293333Y-123797619D01*
X124245714Y-123750000D01*
X124174285Y-123726190D01*
X124126666Y-123726190D01*
X124055238Y-123750000D01*
X124031428Y-123773810D01*
X123555238Y-124226190D02*
X123840952Y-124226190D01*
X123698095Y-124226190D02*
X123698095Y-123726190D01*
X123745714Y-123797619D01*
X123793333Y-123845238D01*
X123840952Y-123869048D01*
X123388571Y-123726190D02*
X123055238Y-123726190D01*
X123269524Y-124226190D01*
X123701428Y-130598571D02*
X123725238Y-130622381D01*
X123796666Y-130646190D01*
X123844285Y-130646190D01*
X123915714Y-130622381D01*
X123963333Y-130574762D01*
X123987142Y-130527143D01*
X124010952Y-130431905D01*
X124010952Y-130360476D01*
X123987142Y-130265238D01*
X123963333Y-130217619D01*
X123915714Y-130170000D01*
X123844285Y-130146190D01*
X123796666Y-130146190D01*
X123725238Y-130170000D01*
X123701428Y-130193810D01*
X123510952Y-130193810D02*
X123487142Y-130170000D01*
X123439523Y-130146190D01*
X123320476Y-130146190D01*
X123272857Y-130170000D01*
X123249047Y-130193810D01*
X123225238Y-130241429D01*
X123225238Y-130289048D01*
X123249047Y-130360476D01*
X123534761Y-130646190D01*
X123225238Y-130646190D01*
X122749048Y-130646190D02*
X123034762Y-130646190D01*
X122891905Y-130646190D02*
X122891905Y-130146190D01*
X122939524Y-130217619D01*
X122987143Y-130265238D01*
X123034762Y-130289048D01*
X118819271Y-83898572D02*
X118843081Y-83874762D01*
X118866890Y-83803334D01*
X118866890Y-83755715D01*
X118843081Y-83684286D01*
X118795462Y-83636667D01*
X118747843Y-83612858D01*
X118652605Y-83589048D01*
X118581176Y-83589048D01*
X118485938Y-83612858D01*
X118438319Y-83636667D01*
X118390700Y-83684286D01*
X118366890Y-83755715D01*
X118366890Y-83803334D01*
X118390700Y-83874762D01*
X118414510Y-83898572D01*
X118414510Y-84089048D02*
X118390700Y-84112858D01*
X118366890Y-84160477D01*
X118366890Y-84279524D01*
X118390700Y-84327143D01*
X118414510Y-84350953D01*
X118462129Y-84374762D01*
X118509748Y-84374762D01*
X118581176Y-84350953D01*
X118866890Y-84065239D01*
X118866890Y-84374762D01*
X118366890Y-84541429D02*
X118366890Y-84850952D01*
X118557367Y-84684286D01*
X118557367Y-84755714D01*
X118581176Y-84803333D01*
X118604986Y-84827143D01*
X118652605Y-84850952D01*
X118771652Y-84850952D01*
X118819271Y-84827143D01*
X118843081Y-84803333D01*
X118866890Y-84755714D01*
X118866890Y-84612857D01*
X118843081Y-84565238D01*
X118819271Y-84541429D01*
X118201428Y-63948571D02*
X118225238Y-63972381D01*
X118296666Y-63996190D01*
X118344285Y-63996190D01*
X118415714Y-63972381D01*
X118463333Y-63924762D01*
X118487142Y-63877143D01*
X118510952Y-63781905D01*
X118510952Y-63710476D01*
X118487142Y-63615238D01*
X118463333Y-63567619D01*
X118415714Y-63520000D01*
X118344285Y-63496190D01*
X118296666Y-63496190D01*
X118225238Y-63520000D01*
X118201428Y-63543810D01*
X118010952Y-63543810D02*
X117987142Y-63520000D01*
X117939523Y-63496190D01*
X117820476Y-63496190D01*
X117772857Y-63520000D01*
X117749047Y-63543810D01*
X117725238Y-63591429D01*
X117725238Y-63639048D01*
X117749047Y-63710476D01*
X118034761Y-63996190D01*
X117725238Y-63996190D01*
X117296667Y-63662857D02*
X117296667Y-63996190D01*
X117415714Y-63472381D02*
X117534762Y-63829524D01*
X117225238Y-63829524D01*
X118311428Y-52998571D02*
X118335238Y-53022381D01*
X118406666Y-53046190D01*
X118454285Y-53046190D01*
X118525714Y-53022381D01*
X118573333Y-52974762D01*
X118597142Y-52927143D01*
X118620952Y-52831905D01*
X118620952Y-52760476D01*
X118597142Y-52665238D01*
X118573333Y-52617619D01*
X118525714Y-52570000D01*
X118454285Y-52546190D01*
X118406666Y-52546190D01*
X118335238Y-52570000D01*
X118311428Y-52593810D01*
X118120952Y-52593810D02*
X118097142Y-52570000D01*
X118049523Y-52546190D01*
X117930476Y-52546190D01*
X117882857Y-52570000D01*
X117859047Y-52593810D01*
X117835238Y-52641429D01*
X117835238Y-52689048D01*
X117859047Y-52760476D01*
X118144761Y-53046190D01*
X117835238Y-53046190D01*
X117382857Y-52546190D02*
X117620952Y-52546190D01*
X117644762Y-52784286D01*
X117620952Y-52760476D01*
X117573333Y-52736667D01*
X117454286Y-52736667D01*
X117406667Y-52760476D01*
X117382857Y-52784286D01*
X117359048Y-52831905D01*
X117359048Y-52950952D01*
X117382857Y-52998571D01*
X117406667Y-53022381D01*
X117454286Y-53046190D01*
X117573333Y-53046190D01*
X117620952Y-53022381D01*
X117644762Y-52998571D01*
X113361428Y-56408571D02*
X113385238Y-56432381D01*
X113456666Y-56456190D01*
X113504285Y-56456190D01*
X113575714Y-56432381D01*
X113623333Y-56384762D01*
X113647142Y-56337143D01*
X113670952Y-56241905D01*
X113670952Y-56170476D01*
X113647142Y-56075238D01*
X113623333Y-56027619D01*
X113575714Y-55980000D01*
X113504285Y-55956190D01*
X113456666Y-55956190D01*
X113385238Y-55980000D01*
X113361428Y-56003810D01*
X113170952Y-56003810D02*
X113147142Y-55980000D01*
X113099523Y-55956190D01*
X112980476Y-55956190D01*
X112932857Y-55980000D01*
X112909047Y-56003810D01*
X112885238Y-56051429D01*
X112885238Y-56099048D01*
X112909047Y-56170476D01*
X113194761Y-56456190D01*
X112885238Y-56456190D01*
X112456667Y-55956190D02*
X112551905Y-55956190D01*
X112599524Y-55980000D01*
X112623333Y-56003810D01*
X112670952Y-56075238D01*
X112694762Y-56170476D01*
X112694762Y-56360952D01*
X112670952Y-56408571D01*
X112647143Y-56432381D01*
X112599524Y-56456190D01*
X112504286Y-56456190D01*
X112456667Y-56432381D01*
X112432857Y-56408571D01*
X112409048Y-56360952D01*
X112409048Y-56241905D01*
X112432857Y-56194286D01*
X112456667Y-56170476D01*
X112504286Y-56146667D01*
X112599524Y-56146667D01*
X112647143Y-56170476D01*
X112670952Y-56194286D01*
X112694762Y-56241905D01*
X120601390Y-81401267D02*
X120601390Y-81163172D01*
X120101390Y-81163172D01*
X120601390Y-81829838D02*
X120601390Y-81544124D01*
X120601390Y-81686981D02*
X120101390Y-81686981D01*
X120172819Y-81639362D01*
X120220438Y-81591743D01*
X120244248Y-81544124D01*
X117596190Y-85666667D02*
X117596190Y-85428572D01*
X117096190Y-85428572D01*
X117096190Y-85785715D02*
X117096190Y-86095238D01*
X117286667Y-85928572D01*
X117286667Y-86000000D01*
X117310476Y-86047619D01*
X117334286Y-86071429D01*
X117381905Y-86095238D01*
X117500952Y-86095238D01*
X117548571Y-86071429D01*
X117572381Y-86047619D01*
X117596190Y-86000000D01*
X117596190Y-85857143D01*
X117572381Y-85809524D01*
X117548571Y-85785715D01*
X120613333Y-87786190D02*
X120851428Y-87786190D01*
X120851428Y-87286190D01*
X120232381Y-87452857D02*
X120232381Y-87786190D01*
X120351428Y-87262381D02*
X120470476Y-87619524D01*
X120160952Y-87619524D01*
X115126190Y-42238572D02*
X114888095Y-42071905D01*
X115126190Y-41952858D02*
X114626190Y-41952858D01*
X114626190Y-42143334D01*
X114650000Y-42190953D01*
X114673810Y-42214762D01*
X114721429Y-42238572D01*
X114792857Y-42238572D01*
X114840476Y-42214762D01*
X114864286Y-42190953D01*
X114888095Y-42143334D01*
X114888095Y-41952858D01*
X115126190Y-42714762D02*
X115126190Y-42429048D01*
X115126190Y-42571905D02*
X114626190Y-42571905D01*
X114697619Y-42524286D01*
X114745238Y-42476667D01*
X114769048Y-42429048D01*
X114626190Y-43143333D02*
X114626190Y-43048095D01*
X114650000Y-43000476D01*
X114673810Y-42976667D01*
X114745238Y-42929048D01*
X114840476Y-42905238D01*
X115030952Y-42905238D01*
X115078571Y-42929048D01*
X115102381Y-42952857D01*
X115126190Y-43000476D01*
X115126190Y-43095714D01*
X115102381Y-43143333D01*
X115078571Y-43167143D01*
X115030952Y-43190952D01*
X114911905Y-43190952D01*
X114864286Y-43167143D01*
X114840476Y-43143333D01*
X114816667Y-43095714D01*
X114816667Y-43000476D01*
X114840476Y-42952857D01*
X114864286Y-42929048D01*
X114911905Y-42905238D01*
X115226190Y-44148572D02*
X114988095Y-43981905D01*
X115226190Y-43862858D02*
X114726190Y-43862858D01*
X114726190Y-44053334D01*
X114750000Y-44100953D01*
X114773810Y-44124762D01*
X114821429Y-44148572D01*
X114892857Y-44148572D01*
X114940476Y-44124762D01*
X114964286Y-44100953D01*
X114988095Y-44053334D01*
X114988095Y-43862858D01*
X115226190Y-44624762D02*
X115226190Y-44339048D01*
X115226190Y-44481905D02*
X114726190Y-44481905D01*
X114797619Y-44434286D01*
X114845238Y-44386667D01*
X114869048Y-44339048D01*
X114726190Y-44791429D02*
X114726190Y-45124762D01*
X115226190Y-44910476D01*
X119711428Y-47536190D02*
X119878095Y-47298095D01*
X119997142Y-47536190D02*
X119997142Y-47036190D01*
X119806666Y-47036190D01*
X119759047Y-47060000D01*
X119735238Y-47083810D01*
X119711428Y-47131429D01*
X119711428Y-47202857D01*
X119735238Y-47250476D01*
X119759047Y-47274286D01*
X119806666Y-47298095D01*
X119997142Y-47298095D01*
X119235238Y-47536190D02*
X119520952Y-47536190D01*
X119378095Y-47536190D02*
X119378095Y-47036190D01*
X119425714Y-47107619D01*
X119473333Y-47155238D01*
X119520952Y-47179048D01*
X118949524Y-47250476D02*
X118997143Y-47226667D01*
X119020952Y-47202857D01*
X119044762Y-47155238D01*
X119044762Y-47131429D01*
X119020952Y-47083810D01*
X118997143Y-47060000D01*
X118949524Y-47036190D01*
X118854286Y-47036190D01*
X118806667Y-47060000D01*
X118782857Y-47083810D01*
X118759048Y-47131429D01*
X118759048Y-47155238D01*
X118782857Y-47202857D01*
X118806667Y-47226667D01*
X118854286Y-47250476D01*
X118949524Y-47250476D01*
X118997143Y-47274286D01*
X119020952Y-47298095D01*
X119044762Y-47345714D01*
X119044762Y-47440952D01*
X119020952Y-47488571D01*
X118997143Y-47512381D01*
X118949524Y-47536190D01*
X118854286Y-47536190D01*
X118806667Y-47512381D01*
X118782857Y-47488571D01*
X118759048Y-47440952D01*
X118759048Y-47345714D01*
X118782857Y-47298095D01*
X118806667Y-47274286D01*
X118854286Y-47250476D01*
X121621428Y-47586190D02*
X121788095Y-47348095D01*
X121907142Y-47586190D02*
X121907142Y-47086190D01*
X121716666Y-47086190D01*
X121669047Y-47110000D01*
X121645238Y-47133810D01*
X121621428Y-47181429D01*
X121621428Y-47252857D01*
X121645238Y-47300476D01*
X121669047Y-47324286D01*
X121716666Y-47348095D01*
X121907142Y-47348095D01*
X121145238Y-47586190D02*
X121430952Y-47586190D01*
X121288095Y-47586190D02*
X121288095Y-47086190D01*
X121335714Y-47157619D01*
X121383333Y-47205238D01*
X121430952Y-47229048D01*
X120907143Y-47586190D02*
X120811905Y-47586190D01*
X120764286Y-47562381D01*
X120740476Y-47538571D01*
X120692857Y-47467143D01*
X120669048Y-47371905D01*
X120669048Y-47181429D01*
X120692857Y-47133810D01*
X120716667Y-47110000D01*
X120764286Y-47086190D01*
X120859524Y-47086190D01*
X120907143Y-47110000D01*
X120930952Y-47133810D01*
X120954762Y-47181429D01*
X120954762Y-47300476D01*
X120930952Y-47348095D01*
X120907143Y-47371905D01*
X120859524Y-47395714D01*
X120764286Y-47395714D01*
X120716667Y-47371905D01*
X120692857Y-47348095D01*
X120669048Y-47300476D01*
D14*
X107075095Y-58381524D02*
X107277476Y-58381524D01*
X107301286Y-58393429D01*
X107313190Y-58405333D01*
X107325095Y-58429143D01*
X107325095Y-58476762D01*
X107313190Y-58500571D01*
X107301286Y-58512476D01*
X107277476Y-58524381D01*
X107075095Y-58524381D01*
X107075095Y-58619619D02*
X107075095Y-58774381D01*
X107170333Y-58691048D01*
X107170333Y-58726762D01*
X107182238Y-58750572D01*
X107194143Y-58762476D01*
X107217952Y-58774381D01*
X107277476Y-58774381D01*
X107301286Y-58762476D01*
X107313190Y-58750572D01*
X107325095Y-58726762D01*
X107325095Y-58655334D01*
X107313190Y-58631524D01*
X107301286Y-58619619D01*
X117870476Y-45953095D02*
X117870476Y-46155476D01*
X117858571Y-46179286D01*
X117846667Y-46191190D01*
X117822857Y-46203095D01*
X117775238Y-46203095D01*
X117751429Y-46191190D01*
X117739524Y-46179286D01*
X117727619Y-46155476D01*
X117727619Y-45953095D01*
X117596666Y-46203095D02*
X117549047Y-46203095D01*
X117525238Y-46191190D01*
X117513333Y-46179286D01*
X117489524Y-46143571D01*
X117477619Y-46095952D01*
X117477619Y-46000714D01*
X117489524Y-45976905D01*
X117501428Y-45965000D01*
X117525238Y-45953095D01*
X117572857Y-45953095D01*
X117596666Y-45965000D01*
X117608571Y-45976905D01*
X117620476Y-46000714D01*
X117620476Y-46060238D01*
X117608571Y-46084048D01*
X117596666Y-46095952D01*
X117572857Y-46107857D01*
X117525238Y-46107857D01*
X117501428Y-46095952D01*
X117489524Y-46084048D01*
X117477619Y-46060238D01*
D12*
X115361428Y-53218571D02*
X115385238Y-53242381D01*
X115456666Y-53266190D01*
X115504285Y-53266190D01*
X115575714Y-53242381D01*
X115623333Y-53194762D01*
X115647142Y-53147143D01*
X115670952Y-53051905D01*
X115670952Y-52980476D01*
X115647142Y-52885238D01*
X115623333Y-52837619D01*
X115575714Y-52790000D01*
X115504285Y-52766190D01*
X115456666Y-52766190D01*
X115385238Y-52790000D01*
X115361428Y-52813810D01*
X115170952Y-52813810D02*
X115147142Y-52790000D01*
X115099523Y-52766190D01*
X114980476Y-52766190D01*
X114932857Y-52790000D01*
X114909047Y-52813810D01*
X114885238Y-52861429D01*
X114885238Y-52909048D01*
X114909047Y-52980476D01*
X115194761Y-53266190D01*
X114885238Y-53266190D01*
X114599524Y-52980476D02*
X114647143Y-52956667D01*
X114670952Y-52932857D01*
X114694762Y-52885238D01*
X114694762Y-52861429D01*
X114670952Y-52813810D01*
X114647143Y-52790000D01*
X114599524Y-52766190D01*
X114504286Y-52766190D01*
X114456667Y-52790000D01*
X114432857Y-52813810D01*
X114409048Y-52861429D01*
X114409048Y-52885238D01*
X114432857Y-52932857D01*
X114456667Y-52956667D01*
X114504286Y-52980476D01*
X114599524Y-52980476D01*
X114647143Y-53004286D01*
X114670952Y-53028095D01*
X114694762Y-53075714D01*
X114694762Y-53170952D01*
X114670952Y-53218571D01*
X114647143Y-53242381D01*
X114599524Y-53266190D01*
X114504286Y-53266190D01*
X114456667Y-53242381D01*
X114432857Y-53218571D01*
X114409048Y-53170952D01*
X114409048Y-53075714D01*
X114432857Y-53028095D01*
X114456667Y-53004286D01*
X114504286Y-52980476D01*
X115261428Y-62208571D02*
X115285238Y-62232381D01*
X115356666Y-62256190D01*
X115404285Y-62256190D01*
X115475714Y-62232381D01*
X115523333Y-62184762D01*
X115547142Y-62137143D01*
X115570952Y-62041905D01*
X115570952Y-61970476D01*
X115547142Y-61875238D01*
X115523333Y-61827619D01*
X115475714Y-61780000D01*
X115404285Y-61756190D01*
X115356666Y-61756190D01*
X115285238Y-61780000D01*
X115261428Y-61803810D01*
X115070952Y-61803810D02*
X115047142Y-61780000D01*
X114999523Y-61756190D01*
X114880476Y-61756190D01*
X114832857Y-61780000D01*
X114809047Y-61803810D01*
X114785238Y-61851429D01*
X114785238Y-61899048D01*
X114809047Y-61970476D01*
X115094761Y-62256190D01*
X114785238Y-62256190D01*
X114547143Y-62256190D02*
X114451905Y-62256190D01*
X114404286Y-62232381D01*
X114380476Y-62208571D01*
X114332857Y-62137143D01*
X114309048Y-62041905D01*
X114309048Y-61851429D01*
X114332857Y-61803810D01*
X114356667Y-61780000D01*
X114404286Y-61756190D01*
X114499524Y-61756190D01*
X114547143Y-61780000D01*
X114570952Y-61803810D01*
X114594762Y-61851429D01*
X114594762Y-61970476D01*
X114570952Y-62018095D01*
X114547143Y-62041905D01*
X114499524Y-62065714D01*
X114404286Y-62065714D01*
X114356667Y-62041905D01*
X114332857Y-62018095D01*
X114309048Y-61970476D01*
M02*
