G04 #@! TF.FileFunction,Copper,L3,Inr,Plane*
%FSLAX46Y46*%
G04 Gerber Fmt 4.6, Leading zero omitted, Abs format (unit mm)*
G04 Created by KiCad (PCBNEW 4.0.6-e0-6349~53~ubuntu16.04.1) date Thu Nov 23 18:30:10 2017*
%MOMM*%
%LPD*%
G01*
G04 APERTURE LIST*
%ADD10C,0.100000*%
%ADD11R,1.397000X1.397000*%
%ADD12C,1.397000*%
%ADD13C,0.500000*%
%ADD14C,1.000000*%
%ADD15C,2.000000*%
%ADD16R,1.700000X1.700000*%
%ADD17O,1.700000X1.700000*%
%ADD18R,1.000000X1.000000*%
%ADD19O,1.000000X1.000000*%
%ADD20C,2.200000*%
%ADD21R,1.450000X2.000000*%
%ADD22R,1.900000X2.300000*%
%ADD23C,0.600000*%
%ADD24C,0.254000*%
G04 APERTURE END LIST*
D10*
D11*
X123410000Y-59990000D03*
D12*
X123410000Y-57450000D03*
X123410000Y-54910000D03*
X123410000Y-52370000D03*
X123410000Y-49830000D03*
X123410000Y-47290000D03*
X123410000Y-44750000D03*
X123410000Y-42210000D03*
X123410000Y-39670000D03*
X123410000Y-37130000D03*
X123410000Y-34590000D03*
X113250000Y-34590000D03*
X113250000Y-37130000D03*
X113250000Y-39670000D03*
X113250000Y-42210000D03*
X113250000Y-44750000D03*
X113250000Y-47290000D03*
X113250000Y-49830000D03*
X113250000Y-52370000D03*
X113250000Y-54910000D03*
X113250000Y-57450000D03*
X113250000Y-59990000D03*
D13*
X117740000Y-127220000D03*
X128840000Y-121200000D03*
X128840000Y-120000000D03*
X128840000Y-118800000D03*
X128840000Y-117600000D03*
X113970000Y-121460000D03*
X122270000Y-123750000D03*
X121070000Y-123750000D03*
X122270000Y-122550000D03*
X121070000Y-122550000D03*
X111630000Y-141850000D03*
X111630000Y-139850000D03*
X111630000Y-137850000D03*
X111630000Y-135850000D03*
X120550000Y-142650000D03*
X116550000Y-142650000D03*
X120550000Y-140650000D03*
X116550000Y-140650000D03*
X120550000Y-138650000D03*
X116550000Y-138650000D03*
X120550000Y-136650000D03*
X116550000Y-136650000D03*
X120550000Y-134650000D03*
X116550000Y-134650000D03*
X120550000Y-132650000D03*
X116550000Y-132650000D03*
X107350000Y-128280000D03*
X107350000Y-127280000D03*
X126590000Y-73530000D03*
X126590000Y-72030000D03*
X126590000Y-70530000D03*
X126590000Y-69030000D03*
X126590000Y-67530000D03*
X126590000Y-66030000D03*
X126590000Y-64530000D03*
X126590000Y-63030000D03*
X119440000Y-61010000D03*
X119440000Y-59010000D03*
X119440000Y-57010000D03*
X119440000Y-55010000D03*
X119670000Y-65920000D03*
X118670000Y-65920000D03*
X117670000Y-65920000D03*
X120230000Y-76980000D03*
X119080000Y-76980000D03*
X117930000Y-76980000D03*
X116780000Y-76980000D03*
X120230000Y-75830000D03*
X119080000Y-75830000D03*
X117930000Y-75830000D03*
X116780000Y-75830000D03*
X120230000Y-74680000D03*
X119080000Y-74680000D03*
X117930000Y-74680000D03*
X116780000Y-74680000D03*
X120230000Y-73530000D03*
X119080000Y-73530000D03*
X117930000Y-73530000D03*
D10*
G36*
X107935476Y-145255303D02*
X107509697Y-144350476D01*
X108414524Y-143924697D01*
X108840303Y-144829524D01*
X107935476Y-145255303D01*
X107935476Y-145255303D01*
G37*
D14*
X108715740Y-145739130D02*
X108715740Y-145739130D01*
X109256479Y-146888261D02*
X109256479Y-146888261D01*
X109797219Y-148037391D02*
X109797219Y-148037391D01*
X110337959Y-149186521D02*
X110337959Y-149186521D01*
X110878699Y-150335652D02*
X110878699Y-150335652D01*
D13*
X127350000Y-79790000D03*
X123740000Y-79850000D03*
X121690000Y-82700000D03*
X121690000Y-81700000D03*
X121690000Y-80700000D03*
X116975000Y-83950000D03*
X115775000Y-83950000D03*
X114575000Y-83950000D03*
X113375000Y-83950000D03*
X112175000Y-83950000D03*
X110975000Y-83950000D03*
X109775000Y-83950000D03*
X108575000Y-83950000D03*
X118175000Y-87950000D03*
X117175000Y-87950000D03*
X116175000Y-87950000D03*
D15*
X118343743Y-69335858D03*
D13*
X115175000Y-87950000D03*
X114175000Y-87950000D03*
X113175000Y-87950000D03*
X112175000Y-87950000D03*
X111175000Y-87950000D03*
X110175000Y-87950000D03*
X109175000Y-87950000D03*
X108175000Y-87950000D03*
X107175000Y-87950000D03*
X106175000Y-87950000D03*
X106175000Y-86950000D03*
X106175000Y-85950000D03*
X106175000Y-84950000D03*
D16*
X112110000Y-93150000D03*
D17*
X112110000Y-95690000D03*
X112110000Y-98230000D03*
X112110000Y-100770000D03*
X112110000Y-103310000D03*
X112110000Y-105850000D03*
X112110000Y-108390000D03*
X112110000Y-110930000D03*
D18*
X125810000Y-99560000D03*
D19*
X125810000Y-100830000D03*
X125810000Y-102100000D03*
X125810000Y-103370000D03*
D20*
X118343743Y-22043858D03*
X106711973Y-133843201D03*
X125807736Y-119834648D03*
D18*
X125375000Y-79200000D03*
D19*
X125375000Y-77930000D03*
X125375000Y-76660000D03*
X125375000Y-75390000D03*
D18*
X107750000Y-79200000D03*
D19*
X107750000Y-77930000D03*
X107750000Y-76660000D03*
X107750000Y-75390000D03*
X107750000Y-74120000D03*
X107750000Y-72850000D03*
D21*
X126050000Y-124565000D03*
X126050000Y-130565000D03*
D22*
X128750000Y-124565000D03*
X128750000Y-130565000D03*
D16*
X113040000Y-118710000D03*
D17*
X110500000Y-118710000D03*
X107960000Y-118710000D03*
X105420000Y-118710000D03*
D13*
X116780000Y-73530000D03*
X116110000Y-127200000D03*
D23*
X116530000Y-46320000D03*
X107303760Y-124396200D03*
X123520000Y-71530000D03*
X114960000Y-69830000D03*
X113520000Y-71020000D03*
X112010000Y-73820000D03*
X114770000Y-81890000D03*
X113170000Y-80590000D03*
X123520000Y-73030000D03*
X113520000Y-72520000D03*
X117900000Y-61190000D03*
X115880000Y-40890000D03*
X108140000Y-52870000D03*
X125230000Y-21510000D03*
X113710000Y-78110000D03*
X118200000Y-121930000D03*
X116640000Y-130240000D03*
X120340000Y-126300000D03*
X120360000Y-128140000D03*
D24*
G36*
X127916743Y-80371693D02*
X122325538Y-80348001D01*
X122276086Y-80357797D01*
X122234341Y-80386062D01*
X122206882Y-80428340D01*
X122198004Y-80476058D01*
X122221937Y-83348000D01*
X119900000Y-83348000D01*
X119850590Y-83358006D01*
X119808965Y-83386447D01*
X119781685Y-83428841D01*
X119773000Y-83475000D01*
X119773000Y-88573000D01*
X118100000Y-88573000D01*
X117936594Y-88605503D01*
X117872993Y-88648000D01*
X115177007Y-88648000D01*
X115113406Y-88605503D01*
X114950000Y-88573000D01*
X105770743Y-88573000D01*
X105770743Y-75691874D01*
X106655881Y-75691874D01*
X106762873Y-75950209D01*
X107027721Y-76256762D01*
X106969750Y-76343521D01*
X106906798Y-76660000D01*
X106969750Y-76976479D01*
X107149021Y-77244777D01*
X107224185Y-77295000D01*
X107149021Y-77345223D01*
X106969750Y-77613521D01*
X106906798Y-77930000D01*
X106969750Y-78246479D01*
X107084360Y-78418005D01*
X107017526Y-78461012D01*
X106942862Y-78570286D01*
X106916594Y-78700000D01*
X106916594Y-79700000D01*
X106939395Y-79821179D01*
X107011012Y-79932474D01*
X107120286Y-80007138D01*
X107250000Y-80033406D01*
X108250000Y-80033406D01*
X108371179Y-80010605D01*
X108482474Y-79938988D01*
X108557138Y-79829714D01*
X108583406Y-79700000D01*
X108583406Y-78700000D01*
X108560605Y-78578821D01*
X108488988Y-78467526D01*
X108415913Y-78417596D01*
X108530250Y-78246479D01*
X108532698Y-78234171D01*
X113082891Y-78234171D01*
X113178145Y-78464703D01*
X113354369Y-78641235D01*
X113584735Y-78736891D01*
X113834171Y-78737109D01*
X114064703Y-78641855D01*
X114241235Y-78465631D01*
X114336891Y-78235265D01*
X114337109Y-77985829D01*
X114241855Y-77755297D01*
X114065631Y-77578765D01*
X113835265Y-77483109D01*
X113585829Y-77482891D01*
X113355297Y-77578145D01*
X113178765Y-77754369D01*
X113083109Y-77984735D01*
X113082891Y-78234171D01*
X108532698Y-78234171D01*
X108593202Y-77930000D01*
X108530250Y-77613521D01*
X108350979Y-77345223D01*
X108275815Y-77295000D01*
X108350979Y-77244777D01*
X108530250Y-76976479D01*
X108593202Y-76660000D01*
X108530250Y-76343521D01*
X108472279Y-76256762D01*
X108737127Y-75950209D01*
X108844119Y-75691874D01*
X124280881Y-75691874D01*
X124387873Y-75950209D01*
X124652721Y-76256762D01*
X124594750Y-76343521D01*
X124531798Y-76660000D01*
X124594750Y-76976479D01*
X124774021Y-77244777D01*
X124849185Y-77295000D01*
X124774021Y-77345223D01*
X124594750Y-77613521D01*
X124531798Y-77930000D01*
X124594750Y-78246479D01*
X124709360Y-78418005D01*
X124642526Y-78461012D01*
X124567862Y-78570286D01*
X124541594Y-78700000D01*
X124541594Y-79700000D01*
X124564395Y-79821179D01*
X124636012Y-79932474D01*
X124745286Y-80007138D01*
X124875000Y-80033406D01*
X125875000Y-80033406D01*
X125996179Y-80010605D01*
X126107474Y-79938988D01*
X126182138Y-79829714D01*
X126208406Y-79700000D01*
X126208406Y-78700000D01*
X126185605Y-78578821D01*
X126113988Y-78467526D01*
X126040913Y-78417596D01*
X126155250Y-78246479D01*
X126218202Y-77930000D01*
X126155250Y-77613521D01*
X125975979Y-77345223D01*
X125900815Y-77295000D01*
X125975979Y-77244777D01*
X126155250Y-76976479D01*
X126218202Y-76660000D01*
X126155250Y-76343521D01*
X126097279Y-76256762D01*
X126362127Y-75950209D01*
X126469119Y-75691874D01*
X126342954Y-75517000D01*
X125502000Y-75517000D01*
X125502000Y-75537000D01*
X125248000Y-75537000D01*
X125248000Y-75517000D01*
X124407046Y-75517000D01*
X124280881Y-75691874D01*
X108844119Y-75691874D01*
X108717954Y-75517000D01*
X107877000Y-75517000D01*
X107877000Y-75537000D01*
X107623000Y-75537000D01*
X107623000Y-75517000D01*
X106782046Y-75517000D01*
X106655881Y-75691874D01*
X105770743Y-75691874D01*
X105770743Y-75088126D01*
X106655881Y-75088126D01*
X106782046Y-75263000D01*
X107623000Y-75263000D01*
X107623000Y-75243000D01*
X107877000Y-75243000D01*
X107877000Y-75263000D01*
X108717954Y-75263000D01*
X108844119Y-75088126D01*
X124280881Y-75088126D01*
X124407046Y-75263000D01*
X125248000Y-75263000D01*
X125248000Y-74420865D01*
X125502000Y-74420865D01*
X125502000Y-75263000D01*
X126342954Y-75263000D01*
X126469119Y-75088126D01*
X126362127Y-74829791D01*
X126072604Y-74494677D01*
X125676877Y-74295868D01*
X125502000Y-74420865D01*
X125248000Y-74420865D01*
X125073123Y-74295868D01*
X124677396Y-74494677D01*
X124387873Y-74829791D01*
X124280881Y-75088126D01*
X108844119Y-75088126D01*
X108737127Y-74829791D01*
X108472279Y-74523238D01*
X108530250Y-74436479D01*
X108593202Y-74120000D01*
X108530250Y-73803521D01*
X108350979Y-73535223D01*
X108275815Y-73485000D01*
X108350979Y-73434777D01*
X108530250Y-73166479D01*
X108532698Y-73154171D01*
X122892891Y-73154171D01*
X122988145Y-73384703D01*
X123164369Y-73561235D01*
X123394735Y-73656891D01*
X123644171Y-73657109D01*
X123874703Y-73561855D01*
X124051235Y-73385631D01*
X124146891Y-73155265D01*
X124147109Y-72905829D01*
X124051855Y-72675297D01*
X123875631Y-72498765D01*
X123645265Y-72403109D01*
X123395829Y-72402891D01*
X123165297Y-72498145D01*
X122988765Y-72674369D01*
X122893109Y-72904735D01*
X122892891Y-73154171D01*
X108532698Y-73154171D01*
X108593202Y-72850000D01*
X108552260Y-72644171D01*
X112892891Y-72644171D01*
X112988145Y-72874703D01*
X113164369Y-73051235D01*
X113394735Y-73146891D01*
X113644171Y-73147109D01*
X113874703Y-73051855D01*
X114051235Y-72875631D01*
X114146891Y-72645265D01*
X114147109Y-72395829D01*
X114051855Y-72165297D01*
X113875631Y-71988765D01*
X113645265Y-71893109D01*
X113395829Y-71892891D01*
X113165297Y-71988145D01*
X112988765Y-72164369D01*
X112893109Y-72394735D01*
X112892891Y-72644171D01*
X108552260Y-72644171D01*
X108530250Y-72533521D01*
X108350979Y-72265223D01*
X108082681Y-72085952D01*
X107766202Y-72023000D01*
X107733798Y-72023000D01*
X107417319Y-72085952D01*
X107149021Y-72265223D01*
X106969750Y-72533521D01*
X106906798Y-72850000D01*
X106969750Y-73166479D01*
X107149021Y-73434777D01*
X107224185Y-73485000D01*
X107149021Y-73535223D01*
X106969750Y-73803521D01*
X106906798Y-74120000D01*
X106969750Y-74436479D01*
X107027721Y-74523238D01*
X106762873Y-74829791D01*
X106655881Y-75088126D01*
X105770743Y-75088126D01*
X105770743Y-60924188D01*
X112495417Y-60924188D01*
X112557071Y-61159800D01*
X113057480Y-61335927D01*
X113457930Y-61314171D01*
X117272891Y-61314171D01*
X117368145Y-61544703D01*
X117544369Y-61721235D01*
X117774735Y-61816891D01*
X118024171Y-61817109D01*
X118254703Y-61721855D01*
X118431235Y-61545631D01*
X118526891Y-61315265D01*
X118527109Y-61065829D01*
X118431855Y-60835297D01*
X118255631Y-60658765D01*
X118025265Y-60563109D01*
X117775829Y-60562891D01*
X117545297Y-60658145D01*
X117368765Y-60834369D01*
X117273109Y-61064735D01*
X117272891Y-61314171D01*
X113457930Y-61314171D01*
X113587199Y-61307148D01*
X113942929Y-61159800D01*
X114004583Y-60924188D01*
X113250000Y-60169605D01*
X112495417Y-60924188D01*
X105770743Y-60924188D01*
X105770743Y-59797480D01*
X111904073Y-59797480D01*
X111932852Y-60327199D01*
X112080200Y-60682929D01*
X112315812Y-60744583D01*
X113070395Y-59990000D01*
X113429605Y-59990000D01*
X114184188Y-60744583D01*
X114419800Y-60682929D01*
X114595927Y-60182520D01*
X114567148Y-59652801D01*
X114419800Y-59297071D01*
X114398511Y-59291500D01*
X122378094Y-59291500D01*
X122378094Y-60688500D01*
X122400895Y-60809679D01*
X122472512Y-60920974D01*
X122581786Y-60995638D01*
X122711500Y-61021906D01*
X124108500Y-61021906D01*
X124229679Y-60999105D01*
X124340974Y-60927488D01*
X124415638Y-60818214D01*
X124441906Y-60688500D01*
X124441906Y-59291500D01*
X124419105Y-59170321D01*
X124347488Y-59059026D01*
X124238214Y-58984362D01*
X124108500Y-58958094D01*
X122711500Y-58958094D01*
X122590321Y-58980895D01*
X122479026Y-59052512D01*
X122404362Y-59161786D01*
X122378094Y-59291500D01*
X114398511Y-59291500D01*
X114184188Y-59235417D01*
X113429605Y-59990000D01*
X113070395Y-59990000D01*
X112315812Y-59235417D01*
X112080200Y-59297071D01*
X111904073Y-59797480D01*
X105770743Y-59797480D01*
X105770743Y-59055812D01*
X112495417Y-59055812D01*
X113250000Y-59810395D01*
X114004583Y-59055812D01*
X113942929Y-58820200D01*
X113442520Y-58644073D01*
X112912801Y-58672852D01*
X112557071Y-58820200D01*
X112495417Y-59055812D01*
X105770743Y-59055812D01*
X105770743Y-57653090D01*
X112224322Y-57653090D01*
X112380116Y-58030140D01*
X112668342Y-58318870D01*
X113045120Y-58475322D01*
X113453090Y-58475678D01*
X113830140Y-58319884D01*
X114118870Y-58031658D01*
X114275322Y-57654880D01*
X114275323Y-57653090D01*
X122384322Y-57653090D01*
X122540116Y-58030140D01*
X122828342Y-58318870D01*
X123205120Y-58475322D01*
X123613090Y-58475678D01*
X123990140Y-58319884D01*
X124278870Y-58031658D01*
X124435322Y-57654880D01*
X124435678Y-57246910D01*
X124279884Y-56869860D01*
X123991658Y-56581130D01*
X123614880Y-56424678D01*
X123206910Y-56424322D01*
X122829860Y-56580116D01*
X122541130Y-56868342D01*
X122384678Y-57245120D01*
X122384322Y-57653090D01*
X114275323Y-57653090D01*
X114275678Y-57246910D01*
X114119884Y-56869860D01*
X113831658Y-56581130D01*
X113454880Y-56424678D01*
X113046910Y-56424322D01*
X112669860Y-56580116D01*
X112381130Y-56868342D01*
X112224678Y-57245120D01*
X112224322Y-57653090D01*
X105770743Y-57653090D01*
X105770743Y-55844188D01*
X112495417Y-55844188D01*
X112557071Y-56079800D01*
X113057480Y-56255927D01*
X113587199Y-56227148D01*
X113942929Y-56079800D01*
X114004583Y-55844188D01*
X113250000Y-55089605D01*
X112495417Y-55844188D01*
X105770743Y-55844188D01*
X105770743Y-54717480D01*
X111904073Y-54717480D01*
X111932852Y-55247199D01*
X112080200Y-55602929D01*
X112315812Y-55664583D01*
X113070395Y-54910000D01*
X113429605Y-54910000D01*
X114184188Y-55664583D01*
X114419800Y-55602929D01*
X114592206Y-55113090D01*
X122384322Y-55113090D01*
X122540116Y-55490140D01*
X122828342Y-55778870D01*
X123205120Y-55935322D01*
X123613090Y-55935678D01*
X123990140Y-55779884D01*
X124278870Y-55491658D01*
X124435322Y-55114880D01*
X124435678Y-54706910D01*
X124279884Y-54329860D01*
X123991658Y-54041130D01*
X123614880Y-53884678D01*
X123206910Y-53884322D01*
X122829860Y-54040116D01*
X122541130Y-54328342D01*
X122384678Y-54705120D01*
X122384322Y-55113090D01*
X114592206Y-55113090D01*
X114595927Y-55102520D01*
X114567148Y-54572801D01*
X114419800Y-54217071D01*
X114184188Y-54155417D01*
X113429605Y-54910000D01*
X113070395Y-54910000D01*
X112315812Y-54155417D01*
X112080200Y-54217071D01*
X111904073Y-54717480D01*
X105770743Y-54717480D01*
X105770743Y-52994171D01*
X107512891Y-52994171D01*
X107608145Y-53224703D01*
X107784369Y-53401235D01*
X108014735Y-53496891D01*
X108264171Y-53497109D01*
X108494703Y-53401855D01*
X108592540Y-53304188D01*
X112495417Y-53304188D01*
X112557071Y-53539800D01*
X112818629Y-53631859D01*
X112557071Y-53740200D01*
X112495417Y-53975812D01*
X113250000Y-54730395D01*
X114004583Y-53975812D01*
X113942929Y-53740200D01*
X113681371Y-53648141D01*
X113942929Y-53539800D01*
X114004583Y-53304188D01*
X113250000Y-52549605D01*
X112495417Y-53304188D01*
X108592540Y-53304188D01*
X108671235Y-53225631D01*
X108766891Y-52995265D01*
X108767109Y-52745829D01*
X108671855Y-52515297D01*
X108495631Y-52338765D01*
X108265265Y-52243109D01*
X108015829Y-52242891D01*
X107785297Y-52338145D01*
X107608765Y-52514369D01*
X107513109Y-52744735D01*
X107512891Y-52994171D01*
X105770743Y-52994171D01*
X105770743Y-52177480D01*
X111904073Y-52177480D01*
X111932852Y-52707199D01*
X112080200Y-53062929D01*
X112315812Y-53124583D01*
X113070395Y-52370000D01*
X113429605Y-52370000D01*
X114184188Y-53124583D01*
X114419800Y-53062929D01*
X114592206Y-52573090D01*
X122384322Y-52573090D01*
X122540116Y-52950140D01*
X122828342Y-53238870D01*
X123205120Y-53395322D01*
X123613090Y-53395678D01*
X123990140Y-53239884D01*
X124278870Y-52951658D01*
X124435322Y-52574880D01*
X124435678Y-52166910D01*
X124279884Y-51789860D01*
X123991658Y-51501130D01*
X123614880Y-51344678D01*
X123206910Y-51344322D01*
X122829860Y-51500116D01*
X122541130Y-51788342D01*
X122384678Y-52165120D01*
X122384322Y-52573090D01*
X114592206Y-52573090D01*
X114595927Y-52562520D01*
X114567148Y-52032801D01*
X114419800Y-51677071D01*
X114184188Y-51615417D01*
X113429605Y-52370000D01*
X113070395Y-52370000D01*
X112315812Y-51615417D01*
X112080200Y-51677071D01*
X111904073Y-52177480D01*
X105770743Y-52177480D01*
X105770743Y-50764188D01*
X112495417Y-50764188D01*
X112557071Y-50999800D01*
X112818629Y-51091859D01*
X112557071Y-51200200D01*
X112495417Y-51435812D01*
X113250000Y-52190395D01*
X114004583Y-51435812D01*
X113942929Y-51200200D01*
X113681371Y-51108141D01*
X113942929Y-50999800D01*
X114004583Y-50764188D01*
X113250000Y-50009605D01*
X112495417Y-50764188D01*
X105770743Y-50764188D01*
X105770743Y-49637480D01*
X111904073Y-49637480D01*
X111932852Y-50167199D01*
X112080200Y-50522929D01*
X112315812Y-50584583D01*
X113070395Y-49830000D01*
X113429605Y-49830000D01*
X114184188Y-50584583D01*
X114419800Y-50522929D01*
X114592206Y-50033090D01*
X122384322Y-50033090D01*
X122540116Y-50410140D01*
X122828342Y-50698870D01*
X123205120Y-50855322D01*
X123613090Y-50855678D01*
X123990140Y-50699884D01*
X124278870Y-50411658D01*
X124435322Y-50034880D01*
X124435678Y-49626910D01*
X124279884Y-49249860D01*
X123991658Y-48961130D01*
X123614880Y-48804678D01*
X123206910Y-48804322D01*
X122829860Y-48960116D01*
X122541130Y-49248342D01*
X122384678Y-49625120D01*
X122384322Y-50033090D01*
X114592206Y-50033090D01*
X114595927Y-50022520D01*
X114567148Y-49492801D01*
X114419800Y-49137071D01*
X114184188Y-49075417D01*
X113429605Y-49830000D01*
X113070395Y-49830000D01*
X112315812Y-49075417D01*
X112080200Y-49137071D01*
X111904073Y-49637480D01*
X105770743Y-49637480D01*
X105770743Y-48224188D01*
X112495417Y-48224188D01*
X112557071Y-48459800D01*
X112818629Y-48551859D01*
X112557071Y-48660200D01*
X112495417Y-48895812D01*
X113250000Y-49650395D01*
X114004583Y-48895812D01*
X113942929Y-48660200D01*
X113681371Y-48568141D01*
X113942929Y-48459800D01*
X114004583Y-48224188D01*
X122655417Y-48224188D01*
X122717071Y-48459800D01*
X123217480Y-48635927D01*
X123747199Y-48607148D01*
X124102929Y-48459800D01*
X124164583Y-48224188D01*
X123410000Y-47469605D01*
X122655417Y-48224188D01*
X114004583Y-48224188D01*
X113250000Y-47469605D01*
X112495417Y-48224188D01*
X105770743Y-48224188D01*
X105770743Y-47097480D01*
X111904073Y-47097480D01*
X111932852Y-47627199D01*
X112080200Y-47982929D01*
X112315812Y-48044583D01*
X113070395Y-47290000D01*
X113429605Y-47290000D01*
X114184188Y-48044583D01*
X114419800Y-47982929D01*
X114595927Y-47482520D01*
X114575009Y-47097480D01*
X122064073Y-47097480D01*
X122092852Y-47627199D01*
X122240200Y-47982929D01*
X122475812Y-48044583D01*
X123230395Y-47290000D01*
X123589605Y-47290000D01*
X124344188Y-48044583D01*
X124579800Y-47982929D01*
X124755927Y-47482520D01*
X124727148Y-46952801D01*
X124579800Y-46597071D01*
X124344188Y-46535417D01*
X123589605Y-47290000D01*
X123230395Y-47290000D01*
X122475812Y-46535417D01*
X122240200Y-46597071D01*
X122064073Y-47097480D01*
X114575009Y-47097480D01*
X114567148Y-46952801D01*
X114419800Y-46597071D01*
X114184188Y-46535417D01*
X113429605Y-47290000D01*
X113070395Y-47290000D01*
X112315812Y-46535417D01*
X112080200Y-46597071D01*
X111904073Y-47097480D01*
X105770743Y-47097480D01*
X105770743Y-45684188D01*
X112495417Y-45684188D01*
X112557071Y-45919800D01*
X112818629Y-46011859D01*
X112557071Y-46120200D01*
X112495417Y-46355812D01*
X113250000Y-47110395D01*
X114004583Y-46355812D01*
X113942929Y-46120200D01*
X113681371Y-46028141D01*
X113942929Y-45919800D01*
X114004583Y-45684188D01*
X122655417Y-45684188D01*
X122717071Y-45919800D01*
X122978629Y-46011859D01*
X122717071Y-46120200D01*
X122655417Y-46355812D01*
X123410000Y-47110395D01*
X124164583Y-46355812D01*
X124102929Y-46120200D01*
X123841371Y-46028141D01*
X124102929Y-45919800D01*
X124164583Y-45684188D01*
X123410000Y-44929605D01*
X122655417Y-45684188D01*
X114004583Y-45684188D01*
X113250000Y-44929605D01*
X112495417Y-45684188D01*
X105770743Y-45684188D01*
X105770743Y-44557480D01*
X111904073Y-44557480D01*
X111932852Y-45087199D01*
X112080200Y-45442929D01*
X112315812Y-45504583D01*
X113070395Y-44750000D01*
X113429605Y-44750000D01*
X114184188Y-45504583D01*
X114419800Y-45442929D01*
X114595927Y-44942520D01*
X114575009Y-44557480D01*
X122064073Y-44557480D01*
X122092852Y-45087199D01*
X122240200Y-45442929D01*
X122475812Y-45504583D01*
X123230395Y-44750000D01*
X123589605Y-44750000D01*
X124344188Y-45504583D01*
X124579800Y-45442929D01*
X124755927Y-44942520D01*
X124727148Y-44412801D01*
X124579800Y-44057071D01*
X124344188Y-43995417D01*
X123589605Y-44750000D01*
X123230395Y-44750000D01*
X122475812Y-43995417D01*
X122240200Y-44057071D01*
X122064073Y-44557480D01*
X114575009Y-44557480D01*
X114567148Y-44412801D01*
X114419800Y-44057071D01*
X114184188Y-43995417D01*
X113429605Y-44750000D01*
X113070395Y-44750000D01*
X112315812Y-43995417D01*
X112080200Y-44057071D01*
X111904073Y-44557480D01*
X105770743Y-44557480D01*
X105770743Y-43144188D01*
X112495417Y-43144188D01*
X112557071Y-43379800D01*
X112818629Y-43471859D01*
X112557071Y-43580200D01*
X112495417Y-43815812D01*
X113250000Y-44570395D01*
X114004583Y-43815812D01*
X113942929Y-43580200D01*
X113681371Y-43488141D01*
X113942929Y-43379800D01*
X114004583Y-43144188D01*
X122655417Y-43144188D01*
X122717071Y-43379800D01*
X122978629Y-43471859D01*
X122717071Y-43580200D01*
X122655417Y-43815812D01*
X123410000Y-44570395D01*
X124164583Y-43815812D01*
X124102929Y-43580200D01*
X123841371Y-43488141D01*
X124102929Y-43379800D01*
X124164583Y-43144188D01*
X123410000Y-42389605D01*
X122655417Y-43144188D01*
X114004583Y-43144188D01*
X113250000Y-42389605D01*
X112495417Y-43144188D01*
X105770743Y-43144188D01*
X105770743Y-42017480D01*
X111904073Y-42017480D01*
X111932852Y-42547199D01*
X112080200Y-42902929D01*
X112315812Y-42964583D01*
X113070395Y-42210000D01*
X113429605Y-42210000D01*
X114184188Y-42964583D01*
X114419800Y-42902929D01*
X114595927Y-42402520D01*
X114575009Y-42017480D01*
X122064073Y-42017480D01*
X122092852Y-42547199D01*
X122240200Y-42902929D01*
X122475812Y-42964583D01*
X123230395Y-42210000D01*
X123589605Y-42210000D01*
X124344188Y-42964583D01*
X124579800Y-42902929D01*
X124755927Y-42402520D01*
X124727148Y-41872801D01*
X124579800Y-41517071D01*
X124344188Y-41455417D01*
X123589605Y-42210000D01*
X123230395Y-42210000D01*
X122475812Y-41455417D01*
X122240200Y-41517071D01*
X122064073Y-42017480D01*
X114575009Y-42017480D01*
X114567148Y-41872801D01*
X114419800Y-41517071D01*
X114184188Y-41455417D01*
X113429605Y-42210000D01*
X113070395Y-42210000D01*
X112315812Y-41455417D01*
X112080200Y-41517071D01*
X111904073Y-42017480D01*
X105770743Y-42017480D01*
X105770743Y-40604188D01*
X112495417Y-40604188D01*
X112557071Y-40839800D01*
X112818629Y-40931859D01*
X112557071Y-41040200D01*
X112495417Y-41275812D01*
X113250000Y-42030395D01*
X114004583Y-41275812D01*
X113942929Y-41040200D01*
X113868976Y-41014171D01*
X115252891Y-41014171D01*
X115348145Y-41244703D01*
X115524369Y-41421235D01*
X115754735Y-41516891D01*
X116004171Y-41517109D01*
X116234703Y-41421855D01*
X116411235Y-41245631D01*
X116506891Y-41015265D01*
X116507109Y-40765829D01*
X116440321Y-40604188D01*
X122655417Y-40604188D01*
X122717071Y-40839800D01*
X122978629Y-40931859D01*
X122717071Y-41040200D01*
X122655417Y-41275812D01*
X123410000Y-42030395D01*
X124164583Y-41275812D01*
X124102929Y-41040200D01*
X123841371Y-40948141D01*
X124102929Y-40839800D01*
X124164583Y-40604188D01*
X123410000Y-39849605D01*
X122655417Y-40604188D01*
X116440321Y-40604188D01*
X116411855Y-40535297D01*
X116235631Y-40358765D01*
X116005265Y-40263109D01*
X115755829Y-40262891D01*
X115525297Y-40358145D01*
X115348765Y-40534369D01*
X115253109Y-40764735D01*
X115252891Y-41014171D01*
X113868976Y-41014171D01*
X113681371Y-40948141D01*
X113942929Y-40839800D01*
X114004583Y-40604188D01*
X113250000Y-39849605D01*
X112495417Y-40604188D01*
X105770743Y-40604188D01*
X105770743Y-39477480D01*
X111904073Y-39477480D01*
X111932852Y-40007199D01*
X112080200Y-40362929D01*
X112315812Y-40424583D01*
X113070395Y-39670000D01*
X113429605Y-39670000D01*
X114184188Y-40424583D01*
X114419800Y-40362929D01*
X114595927Y-39862520D01*
X114575009Y-39477480D01*
X122064073Y-39477480D01*
X122092852Y-40007199D01*
X122240200Y-40362929D01*
X122475812Y-40424583D01*
X123230395Y-39670000D01*
X123589605Y-39670000D01*
X124344188Y-40424583D01*
X124579800Y-40362929D01*
X124755927Y-39862520D01*
X124727148Y-39332801D01*
X124579800Y-38977071D01*
X124344188Y-38915417D01*
X123589605Y-39670000D01*
X123230395Y-39670000D01*
X122475812Y-38915417D01*
X122240200Y-38977071D01*
X122064073Y-39477480D01*
X114575009Y-39477480D01*
X114567148Y-39332801D01*
X114419800Y-38977071D01*
X114184188Y-38915417D01*
X113429605Y-39670000D01*
X113070395Y-39670000D01*
X112315812Y-38915417D01*
X112080200Y-38977071D01*
X111904073Y-39477480D01*
X105770743Y-39477480D01*
X105770743Y-38064188D01*
X112495417Y-38064188D01*
X112557071Y-38299800D01*
X112818629Y-38391859D01*
X112557071Y-38500200D01*
X112495417Y-38735812D01*
X113250000Y-39490395D01*
X114004583Y-38735812D01*
X113942929Y-38500200D01*
X113681371Y-38408141D01*
X113942929Y-38299800D01*
X114004583Y-38064188D01*
X122655417Y-38064188D01*
X122717071Y-38299800D01*
X122978629Y-38391859D01*
X122717071Y-38500200D01*
X122655417Y-38735812D01*
X123410000Y-39490395D01*
X124164583Y-38735812D01*
X124102929Y-38500200D01*
X123841371Y-38408141D01*
X124102929Y-38299800D01*
X124164583Y-38064188D01*
X123410000Y-37309605D01*
X122655417Y-38064188D01*
X114004583Y-38064188D01*
X113250000Y-37309605D01*
X112495417Y-38064188D01*
X105770743Y-38064188D01*
X105770743Y-36937480D01*
X111904073Y-36937480D01*
X111932852Y-37467199D01*
X112080200Y-37822929D01*
X112315812Y-37884583D01*
X113070395Y-37130000D01*
X113429605Y-37130000D01*
X114184188Y-37884583D01*
X114419800Y-37822929D01*
X114595927Y-37322520D01*
X114575009Y-36937480D01*
X122064073Y-36937480D01*
X122092852Y-37467199D01*
X122240200Y-37822929D01*
X122475812Y-37884583D01*
X123230395Y-37130000D01*
X123589605Y-37130000D01*
X124344188Y-37884583D01*
X124579800Y-37822929D01*
X124755927Y-37322520D01*
X124727148Y-36792801D01*
X124579800Y-36437071D01*
X124344188Y-36375417D01*
X123589605Y-37130000D01*
X123230395Y-37130000D01*
X122475812Y-36375417D01*
X122240200Y-36437071D01*
X122064073Y-36937480D01*
X114575009Y-36937480D01*
X114567148Y-36792801D01*
X114419800Y-36437071D01*
X114184188Y-36375417D01*
X113429605Y-37130000D01*
X113070395Y-37130000D01*
X112315812Y-36375417D01*
X112080200Y-36437071D01*
X111904073Y-36937480D01*
X105770743Y-36937480D01*
X105770743Y-35524188D01*
X112495417Y-35524188D01*
X112557071Y-35759800D01*
X112818629Y-35851859D01*
X112557071Y-35960200D01*
X112495417Y-36195812D01*
X113250000Y-36950395D01*
X114004583Y-36195812D01*
X113942929Y-35960200D01*
X113681371Y-35868141D01*
X113942929Y-35759800D01*
X114004583Y-35524188D01*
X122655417Y-35524188D01*
X122717071Y-35759800D01*
X122978629Y-35851859D01*
X122717071Y-35960200D01*
X122655417Y-36195812D01*
X123410000Y-36950395D01*
X124164583Y-36195812D01*
X124102929Y-35960200D01*
X123841371Y-35868141D01*
X124102929Y-35759800D01*
X124164583Y-35524188D01*
X123410000Y-34769605D01*
X122655417Y-35524188D01*
X114004583Y-35524188D01*
X113250000Y-34769605D01*
X112495417Y-35524188D01*
X105770743Y-35524188D01*
X105770743Y-34397480D01*
X111904073Y-34397480D01*
X111932852Y-34927199D01*
X112080200Y-35282929D01*
X112315812Y-35344583D01*
X113070395Y-34590000D01*
X113429605Y-34590000D01*
X114184188Y-35344583D01*
X114419800Y-35282929D01*
X114595927Y-34782520D01*
X114575009Y-34397480D01*
X122064073Y-34397480D01*
X122092852Y-34927199D01*
X122240200Y-35282929D01*
X122475812Y-35344583D01*
X123230395Y-34590000D01*
X123589605Y-34590000D01*
X124344188Y-35344583D01*
X124579800Y-35282929D01*
X124755927Y-34782520D01*
X124727148Y-34252801D01*
X124579800Y-33897071D01*
X124344188Y-33835417D01*
X123589605Y-34590000D01*
X123230395Y-34590000D01*
X122475812Y-33835417D01*
X122240200Y-33897071D01*
X122064073Y-34397480D01*
X114575009Y-34397480D01*
X114567148Y-34252801D01*
X114419800Y-33897071D01*
X114184188Y-33835417D01*
X113429605Y-34590000D01*
X113070395Y-34590000D01*
X112315812Y-33835417D01*
X112080200Y-33897071D01*
X111904073Y-34397480D01*
X105770743Y-34397480D01*
X105770743Y-33655812D01*
X112495417Y-33655812D01*
X113250000Y-34410395D01*
X114004583Y-33655812D01*
X122655417Y-33655812D01*
X123410000Y-34410395D01*
X124164583Y-33655812D01*
X124102929Y-33420200D01*
X123602520Y-33244073D01*
X123072801Y-33272852D01*
X122717071Y-33420200D01*
X122655417Y-33655812D01*
X114004583Y-33655812D01*
X113942929Y-33420200D01*
X113442520Y-33244073D01*
X112912801Y-33272852D01*
X112557071Y-33420200D01*
X112495417Y-33655812D01*
X105770743Y-33655812D01*
X105770743Y-21634171D01*
X124602891Y-21634171D01*
X124698145Y-21864703D01*
X124874369Y-22041235D01*
X125104735Y-22136891D01*
X125354171Y-22137109D01*
X125584703Y-22041855D01*
X125761235Y-21865631D01*
X125856891Y-21635265D01*
X125857109Y-21385829D01*
X125761855Y-21155297D01*
X125585631Y-20978765D01*
X125355265Y-20883109D01*
X125105829Y-20882891D01*
X124875297Y-20978145D01*
X124698765Y-21154369D01*
X124603109Y-21384735D01*
X124602891Y-21634171D01*
X105770743Y-21634171D01*
X105770743Y-19009837D01*
X127916743Y-19009837D01*
X127916743Y-80371693D01*
X127916743Y-80371693D01*
G37*
X127916743Y-80371693D02*
X122325538Y-80348001D01*
X122276086Y-80357797D01*
X122234341Y-80386062D01*
X122206882Y-80428340D01*
X122198004Y-80476058D01*
X122221937Y-83348000D01*
X119900000Y-83348000D01*
X119850590Y-83358006D01*
X119808965Y-83386447D01*
X119781685Y-83428841D01*
X119773000Y-83475000D01*
X119773000Y-88573000D01*
X118100000Y-88573000D01*
X117936594Y-88605503D01*
X117872993Y-88648000D01*
X115177007Y-88648000D01*
X115113406Y-88605503D01*
X114950000Y-88573000D01*
X105770743Y-88573000D01*
X105770743Y-75691874D01*
X106655881Y-75691874D01*
X106762873Y-75950209D01*
X107027721Y-76256762D01*
X106969750Y-76343521D01*
X106906798Y-76660000D01*
X106969750Y-76976479D01*
X107149021Y-77244777D01*
X107224185Y-77295000D01*
X107149021Y-77345223D01*
X106969750Y-77613521D01*
X106906798Y-77930000D01*
X106969750Y-78246479D01*
X107084360Y-78418005D01*
X107017526Y-78461012D01*
X106942862Y-78570286D01*
X106916594Y-78700000D01*
X106916594Y-79700000D01*
X106939395Y-79821179D01*
X107011012Y-79932474D01*
X107120286Y-80007138D01*
X107250000Y-80033406D01*
X108250000Y-80033406D01*
X108371179Y-80010605D01*
X108482474Y-79938988D01*
X108557138Y-79829714D01*
X108583406Y-79700000D01*
X108583406Y-78700000D01*
X108560605Y-78578821D01*
X108488988Y-78467526D01*
X108415913Y-78417596D01*
X108530250Y-78246479D01*
X108532698Y-78234171D01*
X113082891Y-78234171D01*
X113178145Y-78464703D01*
X113354369Y-78641235D01*
X113584735Y-78736891D01*
X113834171Y-78737109D01*
X114064703Y-78641855D01*
X114241235Y-78465631D01*
X114336891Y-78235265D01*
X114337109Y-77985829D01*
X114241855Y-77755297D01*
X114065631Y-77578765D01*
X113835265Y-77483109D01*
X113585829Y-77482891D01*
X113355297Y-77578145D01*
X113178765Y-77754369D01*
X113083109Y-77984735D01*
X113082891Y-78234171D01*
X108532698Y-78234171D01*
X108593202Y-77930000D01*
X108530250Y-77613521D01*
X108350979Y-77345223D01*
X108275815Y-77295000D01*
X108350979Y-77244777D01*
X108530250Y-76976479D01*
X108593202Y-76660000D01*
X108530250Y-76343521D01*
X108472279Y-76256762D01*
X108737127Y-75950209D01*
X108844119Y-75691874D01*
X124280881Y-75691874D01*
X124387873Y-75950209D01*
X124652721Y-76256762D01*
X124594750Y-76343521D01*
X124531798Y-76660000D01*
X124594750Y-76976479D01*
X124774021Y-77244777D01*
X124849185Y-77295000D01*
X124774021Y-77345223D01*
X124594750Y-77613521D01*
X124531798Y-77930000D01*
X124594750Y-78246479D01*
X124709360Y-78418005D01*
X124642526Y-78461012D01*
X124567862Y-78570286D01*
X124541594Y-78700000D01*
X124541594Y-79700000D01*
X124564395Y-79821179D01*
X124636012Y-79932474D01*
X124745286Y-80007138D01*
X124875000Y-80033406D01*
X125875000Y-80033406D01*
X125996179Y-80010605D01*
X126107474Y-79938988D01*
X126182138Y-79829714D01*
X126208406Y-79700000D01*
X126208406Y-78700000D01*
X126185605Y-78578821D01*
X126113988Y-78467526D01*
X126040913Y-78417596D01*
X126155250Y-78246479D01*
X126218202Y-77930000D01*
X126155250Y-77613521D01*
X125975979Y-77345223D01*
X125900815Y-77295000D01*
X125975979Y-77244777D01*
X126155250Y-76976479D01*
X126218202Y-76660000D01*
X126155250Y-76343521D01*
X126097279Y-76256762D01*
X126362127Y-75950209D01*
X126469119Y-75691874D01*
X126342954Y-75517000D01*
X125502000Y-75517000D01*
X125502000Y-75537000D01*
X125248000Y-75537000D01*
X125248000Y-75517000D01*
X124407046Y-75517000D01*
X124280881Y-75691874D01*
X108844119Y-75691874D01*
X108717954Y-75517000D01*
X107877000Y-75517000D01*
X107877000Y-75537000D01*
X107623000Y-75537000D01*
X107623000Y-75517000D01*
X106782046Y-75517000D01*
X106655881Y-75691874D01*
X105770743Y-75691874D01*
X105770743Y-75088126D01*
X106655881Y-75088126D01*
X106782046Y-75263000D01*
X107623000Y-75263000D01*
X107623000Y-75243000D01*
X107877000Y-75243000D01*
X107877000Y-75263000D01*
X108717954Y-75263000D01*
X108844119Y-75088126D01*
X124280881Y-75088126D01*
X124407046Y-75263000D01*
X125248000Y-75263000D01*
X125248000Y-74420865D01*
X125502000Y-74420865D01*
X125502000Y-75263000D01*
X126342954Y-75263000D01*
X126469119Y-75088126D01*
X126362127Y-74829791D01*
X126072604Y-74494677D01*
X125676877Y-74295868D01*
X125502000Y-74420865D01*
X125248000Y-74420865D01*
X125073123Y-74295868D01*
X124677396Y-74494677D01*
X124387873Y-74829791D01*
X124280881Y-75088126D01*
X108844119Y-75088126D01*
X108737127Y-74829791D01*
X108472279Y-74523238D01*
X108530250Y-74436479D01*
X108593202Y-74120000D01*
X108530250Y-73803521D01*
X108350979Y-73535223D01*
X108275815Y-73485000D01*
X108350979Y-73434777D01*
X108530250Y-73166479D01*
X108532698Y-73154171D01*
X122892891Y-73154171D01*
X122988145Y-73384703D01*
X123164369Y-73561235D01*
X123394735Y-73656891D01*
X123644171Y-73657109D01*
X123874703Y-73561855D01*
X124051235Y-73385631D01*
X124146891Y-73155265D01*
X124147109Y-72905829D01*
X124051855Y-72675297D01*
X123875631Y-72498765D01*
X123645265Y-72403109D01*
X123395829Y-72402891D01*
X123165297Y-72498145D01*
X122988765Y-72674369D01*
X122893109Y-72904735D01*
X122892891Y-73154171D01*
X108532698Y-73154171D01*
X108593202Y-72850000D01*
X108552260Y-72644171D01*
X112892891Y-72644171D01*
X112988145Y-72874703D01*
X113164369Y-73051235D01*
X113394735Y-73146891D01*
X113644171Y-73147109D01*
X113874703Y-73051855D01*
X114051235Y-72875631D01*
X114146891Y-72645265D01*
X114147109Y-72395829D01*
X114051855Y-72165297D01*
X113875631Y-71988765D01*
X113645265Y-71893109D01*
X113395829Y-71892891D01*
X113165297Y-71988145D01*
X112988765Y-72164369D01*
X112893109Y-72394735D01*
X112892891Y-72644171D01*
X108552260Y-72644171D01*
X108530250Y-72533521D01*
X108350979Y-72265223D01*
X108082681Y-72085952D01*
X107766202Y-72023000D01*
X107733798Y-72023000D01*
X107417319Y-72085952D01*
X107149021Y-72265223D01*
X106969750Y-72533521D01*
X106906798Y-72850000D01*
X106969750Y-73166479D01*
X107149021Y-73434777D01*
X107224185Y-73485000D01*
X107149021Y-73535223D01*
X106969750Y-73803521D01*
X106906798Y-74120000D01*
X106969750Y-74436479D01*
X107027721Y-74523238D01*
X106762873Y-74829791D01*
X106655881Y-75088126D01*
X105770743Y-75088126D01*
X105770743Y-60924188D01*
X112495417Y-60924188D01*
X112557071Y-61159800D01*
X113057480Y-61335927D01*
X113457930Y-61314171D01*
X117272891Y-61314171D01*
X117368145Y-61544703D01*
X117544369Y-61721235D01*
X117774735Y-61816891D01*
X118024171Y-61817109D01*
X118254703Y-61721855D01*
X118431235Y-61545631D01*
X118526891Y-61315265D01*
X118527109Y-61065829D01*
X118431855Y-60835297D01*
X118255631Y-60658765D01*
X118025265Y-60563109D01*
X117775829Y-60562891D01*
X117545297Y-60658145D01*
X117368765Y-60834369D01*
X117273109Y-61064735D01*
X117272891Y-61314171D01*
X113457930Y-61314171D01*
X113587199Y-61307148D01*
X113942929Y-61159800D01*
X114004583Y-60924188D01*
X113250000Y-60169605D01*
X112495417Y-60924188D01*
X105770743Y-60924188D01*
X105770743Y-59797480D01*
X111904073Y-59797480D01*
X111932852Y-60327199D01*
X112080200Y-60682929D01*
X112315812Y-60744583D01*
X113070395Y-59990000D01*
X113429605Y-59990000D01*
X114184188Y-60744583D01*
X114419800Y-60682929D01*
X114595927Y-60182520D01*
X114567148Y-59652801D01*
X114419800Y-59297071D01*
X114398511Y-59291500D01*
X122378094Y-59291500D01*
X122378094Y-60688500D01*
X122400895Y-60809679D01*
X122472512Y-60920974D01*
X122581786Y-60995638D01*
X122711500Y-61021906D01*
X124108500Y-61021906D01*
X124229679Y-60999105D01*
X124340974Y-60927488D01*
X124415638Y-60818214D01*
X124441906Y-60688500D01*
X124441906Y-59291500D01*
X124419105Y-59170321D01*
X124347488Y-59059026D01*
X124238214Y-58984362D01*
X124108500Y-58958094D01*
X122711500Y-58958094D01*
X122590321Y-58980895D01*
X122479026Y-59052512D01*
X122404362Y-59161786D01*
X122378094Y-59291500D01*
X114398511Y-59291500D01*
X114184188Y-59235417D01*
X113429605Y-59990000D01*
X113070395Y-59990000D01*
X112315812Y-59235417D01*
X112080200Y-59297071D01*
X111904073Y-59797480D01*
X105770743Y-59797480D01*
X105770743Y-59055812D01*
X112495417Y-59055812D01*
X113250000Y-59810395D01*
X114004583Y-59055812D01*
X113942929Y-58820200D01*
X113442520Y-58644073D01*
X112912801Y-58672852D01*
X112557071Y-58820200D01*
X112495417Y-59055812D01*
X105770743Y-59055812D01*
X105770743Y-57653090D01*
X112224322Y-57653090D01*
X112380116Y-58030140D01*
X112668342Y-58318870D01*
X113045120Y-58475322D01*
X113453090Y-58475678D01*
X113830140Y-58319884D01*
X114118870Y-58031658D01*
X114275322Y-57654880D01*
X114275323Y-57653090D01*
X122384322Y-57653090D01*
X122540116Y-58030140D01*
X122828342Y-58318870D01*
X123205120Y-58475322D01*
X123613090Y-58475678D01*
X123990140Y-58319884D01*
X124278870Y-58031658D01*
X124435322Y-57654880D01*
X124435678Y-57246910D01*
X124279884Y-56869860D01*
X123991658Y-56581130D01*
X123614880Y-56424678D01*
X123206910Y-56424322D01*
X122829860Y-56580116D01*
X122541130Y-56868342D01*
X122384678Y-57245120D01*
X122384322Y-57653090D01*
X114275323Y-57653090D01*
X114275678Y-57246910D01*
X114119884Y-56869860D01*
X113831658Y-56581130D01*
X113454880Y-56424678D01*
X113046910Y-56424322D01*
X112669860Y-56580116D01*
X112381130Y-56868342D01*
X112224678Y-57245120D01*
X112224322Y-57653090D01*
X105770743Y-57653090D01*
X105770743Y-55844188D01*
X112495417Y-55844188D01*
X112557071Y-56079800D01*
X113057480Y-56255927D01*
X113587199Y-56227148D01*
X113942929Y-56079800D01*
X114004583Y-55844188D01*
X113250000Y-55089605D01*
X112495417Y-55844188D01*
X105770743Y-55844188D01*
X105770743Y-54717480D01*
X111904073Y-54717480D01*
X111932852Y-55247199D01*
X112080200Y-55602929D01*
X112315812Y-55664583D01*
X113070395Y-54910000D01*
X113429605Y-54910000D01*
X114184188Y-55664583D01*
X114419800Y-55602929D01*
X114592206Y-55113090D01*
X122384322Y-55113090D01*
X122540116Y-55490140D01*
X122828342Y-55778870D01*
X123205120Y-55935322D01*
X123613090Y-55935678D01*
X123990140Y-55779884D01*
X124278870Y-55491658D01*
X124435322Y-55114880D01*
X124435678Y-54706910D01*
X124279884Y-54329860D01*
X123991658Y-54041130D01*
X123614880Y-53884678D01*
X123206910Y-53884322D01*
X122829860Y-54040116D01*
X122541130Y-54328342D01*
X122384678Y-54705120D01*
X122384322Y-55113090D01*
X114592206Y-55113090D01*
X114595927Y-55102520D01*
X114567148Y-54572801D01*
X114419800Y-54217071D01*
X114184188Y-54155417D01*
X113429605Y-54910000D01*
X113070395Y-54910000D01*
X112315812Y-54155417D01*
X112080200Y-54217071D01*
X111904073Y-54717480D01*
X105770743Y-54717480D01*
X105770743Y-52994171D01*
X107512891Y-52994171D01*
X107608145Y-53224703D01*
X107784369Y-53401235D01*
X108014735Y-53496891D01*
X108264171Y-53497109D01*
X108494703Y-53401855D01*
X108592540Y-53304188D01*
X112495417Y-53304188D01*
X112557071Y-53539800D01*
X112818629Y-53631859D01*
X112557071Y-53740200D01*
X112495417Y-53975812D01*
X113250000Y-54730395D01*
X114004583Y-53975812D01*
X113942929Y-53740200D01*
X113681371Y-53648141D01*
X113942929Y-53539800D01*
X114004583Y-53304188D01*
X113250000Y-52549605D01*
X112495417Y-53304188D01*
X108592540Y-53304188D01*
X108671235Y-53225631D01*
X108766891Y-52995265D01*
X108767109Y-52745829D01*
X108671855Y-52515297D01*
X108495631Y-52338765D01*
X108265265Y-52243109D01*
X108015829Y-52242891D01*
X107785297Y-52338145D01*
X107608765Y-52514369D01*
X107513109Y-52744735D01*
X107512891Y-52994171D01*
X105770743Y-52994171D01*
X105770743Y-52177480D01*
X111904073Y-52177480D01*
X111932852Y-52707199D01*
X112080200Y-53062929D01*
X112315812Y-53124583D01*
X113070395Y-52370000D01*
X113429605Y-52370000D01*
X114184188Y-53124583D01*
X114419800Y-53062929D01*
X114592206Y-52573090D01*
X122384322Y-52573090D01*
X122540116Y-52950140D01*
X122828342Y-53238870D01*
X123205120Y-53395322D01*
X123613090Y-53395678D01*
X123990140Y-53239884D01*
X124278870Y-52951658D01*
X124435322Y-52574880D01*
X124435678Y-52166910D01*
X124279884Y-51789860D01*
X123991658Y-51501130D01*
X123614880Y-51344678D01*
X123206910Y-51344322D01*
X122829860Y-51500116D01*
X122541130Y-51788342D01*
X122384678Y-52165120D01*
X122384322Y-52573090D01*
X114592206Y-52573090D01*
X114595927Y-52562520D01*
X114567148Y-52032801D01*
X114419800Y-51677071D01*
X114184188Y-51615417D01*
X113429605Y-52370000D01*
X113070395Y-52370000D01*
X112315812Y-51615417D01*
X112080200Y-51677071D01*
X111904073Y-52177480D01*
X105770743Y-52177480D01*
X105770743Y-50764188D01*
X112495417Y-50764188D01*
X112557071Y-50999800D01*
X112818629Y-51091859D01*
X112557071Y-51200200D01*
X112495417Y-51435812D01*
X113250000Y-52190395D01*
X114004583Y-51435812D01*
X113942929Y-51200200D01*
X113681371Y-51108141D01*
X113942929Y-50999800D01*
X114004583Y-50764188D01*
X113250000Y-50009605D01*
X112495417Y-50764188D01*
X105770743Y-50764188D01*
X105770743Y-49637480D01*
X111904073Y-49637480D01*
X111932852Y-50167199D01*
X112080200Y-50522929D01*
X112315812Y-50584583D01*
X113070395Y-49830000D01*
X113429605Y-49830000D01*
X114184188Y-50584583D01*
X114419800Y-50522929D01*
X114592206Y-50033090D01*
X122384322Y-50033090D01*
X122540116Y-50410140D01*
X122828342Y-50698870D01*
X123205120Y-50855322D01*
X123613090Y-50855678D01*
X123990140Y-50699884D01*
X124278870Y-50411658D01*
X124435322Y-50034880D01*
X124435678Y-49626910D01*
X124279884Y-49249860D01*
X123991658Y-48961130D01*
X123614880Y-48804678D01*
X123206910Y-48804322D01*
X122829860Y-48960116D01*
X122541130Y-49248342D01*
X122384678Y-49625120D01*
X122384322Y-50033090D01*
X114592206Y-50033090D01*
X114595927Y-50022520D01*
X114567148Y-49492801D01*
X114419800Y-49137071D01*
X114184188Y-49075417D01*
X113429605Y-49830000D01*
X113070395Y-49830000D01*
X112315812Y-49075417D01*
X112080200Y-49137071D01*
X111904073Y-49637480D01*
X105770743Y-49637480D01*
X105770743Y-48224188D01*
X112495417Y-48224188D01*
X112557071Y-48459800D01*
X112818629Y-48551859D01*
X112557071Y-48660200D01*
X112495417Y-48895812D01*
X113250000Y-49650395D01*
X114004583Y-48895812D01*
X113942929Y-48660200D01*
X113681371Y-48568141D01*
X113942929Y-48459800D01*
X114004583Y-48224188D01*
X122655417Y-48224188D01*
X122717071Y-48459800D01*
X123217480Y-48635927D01*
X123747199Y-48607148D01*
X124102929Y-48459800D01*
X124164583Y-48224188D01*
X123410000Y-47469605D01*
X122655417Y-48224188D01*
X114004583Y-48224188D01*
X113250000Y-47469605D01*
X112495417Y-48224188D01*
X105770743Y-48224188D01*
X105770743Y-47097480D01*
X111904073Y-47097480D01*
X111932852Y-47627199D01*
X112080200Y-47982929D01*
X112315812Y-48044583D01*
X113070395Y-47290000D01*
X113429605Y-47290000D01*
X114184188Y-48044583D01*
X114419800Y-47982929D01*
X114595927Y-47482520D01*
X114575009Y-47097480D01*
X122064073Y-47097480D01*
X122092852Y-47627199D01*
X122240200Y-47982929D01*
X122475812Y-48044583D01*
X123230395Y-47290000D01*
X123589605Y-47290000D01*
X124344188Y-48044583D01*
X124579800Y-47982929D01*
X124755927Y-47482520D01*
X124727148Y-46952801D01*
X124579800Y-46597071D01*
X124344188Y-46535417D01*
X123589605Y-47290000D01*
X123230395Y-47290000D01*
X122475812Y-46535417D01*
X122240200Y-46597071D01*
X122064073Y-47097480D01*
X114575009Y-47097480D01*
X114567148Y-46952801D01*
X114419800Y-46597071D01*
X114184188Y-46535417D01*
X113429605Y-47290000D01*
X113070395Y-47290000D01*
X112315812Y-46535417D01*
X112080200Y-46597071D01*
X111904073Y-47097480D01*
X105770743Y-47097480D01*
X105770743Y-45684188D01*
X112495417Y-45684188D01*
X112557071Y-45919800D01*
X112818629Y-46011859D01*
X112557071Y-46120200D01*
X112495417Y-46355812D01*
X113250000Y-47110395D01*
X114004583Y-46355812D01*
X113942929Y-46120200D01*
X113681371Y-46028141D01*
X113942929Y-45919800D01*
X114004583Y-45684188D01*
X122655417Y-45684188D01*
X122717071Y-45919800D01*
X122978629Y-46011859D01*
X122717071Y-46120200D01*
X122655417Y-46355812D01*
X123410000Y-47110395D01*
X124164583Y-46355812D01*
X124102929Y-46120200D01*
X123841371Y-46028141D01*
X124102929Y-45919800D01*
X124164583Y-45684188D01*
X123410000Y-44929605D01*
X122655417Y-45684188D01*
X114004583Y-45684188D01*
X113250000Y-44929605D01*
X112495417Y-45684188D01*
X105770743Y-45684188D01*
X105770743Y-44557480D01*
X111904073Y-44557480D01*
X111932852Y-45087199D01*
X112080200Y-45442929D01*
X112315812Y-45504583D01*
X113070395Y-44750000D01*
X113429605Y-44750000D01*
X114184188Y-45504583D01*
X114419800Y-45442929D01*
X114595927Y-44942520D01*
X114575009Y-44557480D01*
X122064073Y-44557480D01*
X122092852Y-45087199D01*
X122240200Y-45442929D01*
X122475812Y-45504583D01*
X123230395Y-44750000D01*
X123589605Y-44750000D01*
X124344188Y-45504583D01*
X124579800Y-45442929D01*
X124755927Y-44942520D01*
X124727148Y-44412801D01*
X124579800Y-44057071D01*
X124344188Y-43995417D01*
X123589605Y-44750000D01*
X123230395Y-44750000D01*
X122475812Y-43995417D01*
X122240200Y-44057071D01*
X122064073Y-44557480D01*
X114575009Y-44557480D01*
X114567148Y-44412801D01*
X114419800Y-44057071D01*
X114184188Y-43995417D01*
X113429605Y-44750000D01*
X113070395Y-44750000D01*
X112315812Y-43995417D01*
X112080200Y-44057071D01*
X111904073Y-44557480D01*
X105770743Y-44557480D01*
X105770743Y-43144188D01*
X112495417Y-43144188D01*
X112557071Y-43379800D01*
X112818629Y-43471859D01*
X112557071Y-43580200D01*
X112495417Y-43815812D01*
X113250000Y-44570395D01*
X114004583Y-43815812D01*
X113942929Y-43580200D01*
X113681371Y-43488141D01*
X113942929Y-43379800D01*
X114004583Y-43144188D01*
X122655417Y-43144188D01*
X122717071Y-43379800D01*
X122978629Y-43471859D01*
X122717071Y-43580200D01*
X122655417Y-43815812D01*
X123410000Y-44570395D01*
X124164583Y-43815812D01*
X124102929Y-43580200D01*
X123841371Y-43488141D01*
X124102929Y-43379800D01*
X124164583Y-43144188D01*
X123410000Y-42389605D01*
X122655417Y-43144188D01*
X114004583Y-43144188D01*
X113250000Y-42389605D01*
X112495417Y-43144188D01*
X105770743Y-43144188D01*
X105770743Y-42017480D01*
X111904073Y-42017480D01*
X111932852Y-42547199D01*
X112080200Y-42902929D01*
X112315812Y-42964583D01*
X113070395Y-42210000D01*
X113429605Y-42210000D01*
X114184188Y-42964583D01*
X114419800Y-42902929D01*
X114595927Y-42402520D01*
X114575009Y-42017480D01*
X122064073Y-42017480D01*
X122092852Y-42547199D01*
X122240200Y-42902929D01*
X122475812Y-42964583D01*
X123230395Y-42210000D01*
X123589605Y-42210000D01*
X124344188Y-42964583D01*
X124579800Y-42902929D01*
X124755927Y-42402520D01*
X124727148Y-41872801D01*
X124579800Y-41517071D01*
X124344188Y-41455417D01*
X123589605Y-42210000D01*
X123230395Y-42210000D01*
X122475812Y-41455417D01*
X122240200Y-41517071D01*
X122064073Y-42017480D01*
X114575009Y-42017480D01*
X114567148Y-41872801D01*
X114419800Y-41517071D01*
X114184188Y-41455417D01*
X113429605Y-42210000D01*
X113070395Y-42210000D01*
X112315812Y-41455417D01*
X112080200Y-41517071D01*
X111904073Y-42017480D01*
X105770743Y-42017480D01*
X105770743Y-40604188D01*
X112495417Y-40604188D01*
X112557071Y-40839800D01*
X112818629Y-40931859D01*
X112557071Y-41040200D01*
X112495417Y-41275812D01*
X113250000Y-42030395D01*
X114004583Y-41275812D01*
X113942929Y-41040200D01*
X113868976Y-41014171D01*
X115252891Y-41014171D01*
X115348145Y-41244703D01*
X115524369Y-41421235D01*
X115754735Y-41516891D01*
X116004171Y-41517109D01*
X116234703Y-41421855D01*
X116411235Y-41245631D01*
X116506891Y-41015265D01*
X116507109Y-40765829D01*
X116440321Y-40604188D01*
X122655417Y-40604188D01*
X122717071Y-40839800D01*
X122978629Y-40931859D01*
X122717071Y-41040200D01*
X122655417Y-41275812D01*
X123410000Y-42030395D01*
X124164583Y-41275812D01*
X124102929Y-41040200D01*
X123841371Y-40948141D01*
X124102929Y-40839800D01*
X124164583Y-40604188D01*
X123410000Y-39849605D01*
X122655417Y-40604188D01*
X116440321Y-40604188D01*
X116411855Y-40535297D01*
X116235631Y-40358765D01*
X116005265Y-40263109D01*
X115755829Y-40262891D01*
X115525297Y-40358145D01*
X115348765Y-40534369D01*
X115253109Y-40764735D01*
X115252891Y-41014171D01*
X113868976Y-41014171D01*
X113681371Y-40948141D01*
X113942929Y-40839800D01*
X114004583Y-40604188D01*
X113250000Y-39849605D01*
X112495417Y-40604188D01*
X105770743Y-40604188D01*
X105770743Y-39477480D01*
X111904073Y-39477480D01*
X111932852Y-40007199D01*
X112080200Y-40362929D01*
X112315812Y-40424583D01*
X113070395Y-39670000D01*
X113429605Y-39670000D01*
X114184188Y-40424583D01*
X114419800Y-40362929D01*
X114595927Y-39862520D01*
X114575009Y-39477480D01*
X122064073Y-39477480D01*
X122092852Y-40007199D01*
X122240200Y-40362929D01*
X122475812Y-40424583D01*
X123230395Y-39670000D01*
X123589605Y-39670000D01*
X124344188Y-40424583D01*
X124579800Y-40362929D01*
X124755927Y-39862520D01*
X124727148Y-39332801D01*
X124579800Y-38977071D01*
X124344188Y-38915417D01*
X123589605Y-39670000D01*
X123230395Y-39670000D01*
X122475812Y-38915417D01*
X122240200Y-38977071D01*
X122064073Y-39477480D01*
X114575009Y-39477480D01*
X114567148Y-39332801D01*
X114419800Y-38977071D01*
X114184188Y-38915417D01*
X113429605Y-39670000D01*
X113070395Y-39670000D01*
X112315812Y-38915417D01*
X112080200Y-38977071D01*
X111904073Y-39477480D01*
X105770743Y-39477480D01*
X105770743Y-38064188D01*
X112495417Y-38064188D01*
X112557071Y-38299800D01*
X112818629Y-38391859D01*
X112557071Y-38500200D01*
X112495417Y-38735812D01*
X113250000Y-39490395D01*
X114004583Y-38735812D01*
X113942929Y-38500200D01*
X113681371Y-38408141D01*
X113942929Y-38299800D01*
X114004583Y-38064188D01*
X122655417Y-38064188D01*
X122717071Y-38299800D01*
X122978629Y-38391859D01*
X122717071Y-38500200D01*
X122655417Y-38735812D01*
X123410000Y-39490395D01*
X124164583Y-38735812D01*
X124102929Y-38500200D01*
X123841371Y-38408141D01*
X124102929Y-38299800D01*
X124164583Y-38064188D01*
X123410000Y-37309605D01*
X122655417Y-38064188D01*
X114004583Y-38064188D01*
X113250000Y-37309605D01*
X112495417Y-38064188D01*
X105770743Y-38064188D01*
X105770743Y-36937480D01*
X111904073Y-36937480D01*
X111932852Y-37467199D01*
X112080200Y-37822929D01*
X112315812Y-37884583D01*
X113070395Y-37130000D01*
X113429605Y-37130000D01*
X114184188Y-37884583D01*
X114419800Y-37822929D01*
X114595927Y-37322520D01*
X114575009Y-36937480D01*
X122064073Y-36937480D01*
X122092852Y-37467199D01*
X122240200Y-37822929D01*
X122475812Y-37884583D01*
X123230395Y-37130000D01*
X123589605Y-37130000D01*
X124344188Y-37884583D01*
X124579800Y-37822929D01*
X124755927Y-37322520D01*
X124727148Y-36792801D01*
X124579800Y-36437071D01*
X124344188Y-36375417D01*
X123589605Y-37130000D01*
X123230395Y-37130000D01*
X122475812Y-36375417D01*
X122240200Y-36437071D01*
X122064073Y-36937480D01*
X114575009Y-36937480D01*
X114567148Y-36792801D01*
X114419800Y-36437071D01*
X114184188Y-36375417D01*
X113429605Y-37130000D01*
X113070395Y-37130000D01*
X112315812Y-36375417D01*
X112080200Y-36437071D01*
X111904073Y-36937480D01*
X105770743Y-36937480D01*
X105770743Y-35524188D01*
X112495417Y-35524188D01*
X112557071Y-35759800D01*
X112818629Y-35851859D01*
X112557071Y-35960200D01*
X112495417Y-36195812D01*
X113250000Y-36950395D01*
X114004583Y-36195812D01*
X113942929Y-35960200D01*
X113681371Y-35868141D01*
X113942929Y-35759800D01*
X114004583Y-35524188D01*
X122655417Y-35524188D01*
X122717071Y-35759800D01*
X122978629Y-35851859D01*
X122717071Y-35960200D01*
X122655417Y-36195812D01*
X123410000Y-36950395D01*
X124164583Y-36195812D01*
X124102929Y-35960200D01*
X123841371Y-35868141D01*
X124102929Y-35759800D01*
X124164583Y-35524188D01*
X123410000Y-34769605D01*
X122655417Y-35524188D01*
X114004583Y-35524188D01*
X113250000Y-34769605D01*
X112495417Y-35524188D01*
X105770743Y-35524188D01*
X105770743Y-34397480D01*
X111904073Y-34397480D01*
X111932852Y-34927199D01*
X112080200Y-35282929D01*
X112315812Y-35344583D01*
X113070395Y-34590000D01*
X113429605Y-34590000D01*
X114184188Y-35344583D01*
X114419800Y-35282929D01*
X114595927Y-34782520D01*
X114575009Y-34397480D01*
X122064073Y-34397480D01*
X122092852Y-34927199D01*
X122240200Y-35282929D01*
X122475812Y-35344583D01*
X123230395Y-34590000D01*
X123589605Y-34590000D01*
X124344188Y-35344583D01*
X124579800Y-35282929D01*
X124755927Y-34782520D01*
X124727148Y-34252801D01*
X124579800Y-33897071D01*
X124344188Y-33835417D01*
X123589605Y-34590000D01*
X123230395Y-34590000D01*
X122475812Y-33835417D01*
X122240200Y-33897071D01*
X122064073Y-34397480D01*
X114575009Y-34397480D01*
X114567148Y-34252801D01*
X114419800Y-33897071D01*
X114184188Y-33835417D01*
X113429605Y-34590000D01*
X113070395Y-34590000D01*
X112315812Y-33835417D01*
X112080200Y-33897071D01*
X111904073Y-34397480D01*
X105770743Y-34397480D01*
X105770743Y-33655812D01*
X112495417Y-33655812D01*
X113250000Y-34410395D01*
X114004583Y-33655812D01*
X122655417Y-33655812D01*
X123410000Y-34410395D01*
X124164583Y-33655812D01*
X124102929Y-33420200D01*
X123602520Y-33244073D01*
X123072801Y-33272852D01*
X122717071Y-33420200D01*
X122655417Y-33655812D01*
X114004583Y-33655812D01*
X113942929Y-33420200D01*
X113442520Y-33244073D01*
X112912801Y-33272852D01*
X112557071Y-33420200D01*
X112495417Y-33655812D01*
X105770743Y-33655812D01*
X105770743Y-21634171D01*
X124602891Y-21634171D01*
X124698145Y-21864703D01*
X124874369Y-22041235D01*
X125104735Y-22136891D01*
X125354171Y-22137109D01*
X125584703Y-22041855D01*
X125761235Y-21865631D01*
X125856891Y-21635265D01*
X125857109Y-21385829D01*
X125761855Y-21155297D01*
X125585631Y-20978765D01*
X125355265Y-20883109D01*
X125105829Y-20882891D01*
X124875297Y-20978145D01*
X124698765Y-21154369D01*
X124603109Y-21384735D01*
X124602891Y-21634171D01*
X105770743Y-21634171D01*
X105770743Y-19009837D01*
X127916743Y-19009837D01*
X127916743Y-80371693D01*
M02*
