G04 #@! TF.FileFunction,Soldermask,Top*
%FSLAX46Y46*%
G04 Gerber Fmt 4.6, Leading zero omitted, Abs format (unit mm)*
G04 Created by KiCad (PCBNEW 4.0.6-e0-6349~53~ubuntu16.04.1) date Thu Nov 23 18:30:10 2017*
%MOMM*%
%LPD*%
G01*
G04 APERTURE LIST*
%ADD10C,0.100000*%
%ADD11C,0.200000*%
%ADD12R,1.797000X1.797000*%
%ADD13C,1.797000*%
%ADD14C,0.900000*%
%ADD15C,1.400000*%
%ADD16C,2.400000*%
%ADD17R,1.650000X1.400000*%
%ADD18R,2.100000X2.100000*%
%ADD19O,2.100000X2.100000*%
%ADD20R,1.400000X1.400000*%
%ADD21O,1.400000X1.400000*%
%ADD22C,2.600000*%
%ADD23R,1.400000X1.650000*%
%ADD24R,1.200000X1.150000*%
%ADD25R,1.850000X2.400000*%
%ADD26R,2.300000X2.700000*%
%ADD27R,0.650000X1.600000*%
%ADD28R,3.000000X1.900000*%
G04 APERTURE END LIST*
D10*
D11*
X128325000Y-80600000D02*
X128325000Y-80650000D01*
D12*
X123410000Y-59990000D03*
D13*
X123410000Y-57450000D03*
X123410000Y-54910000D03*
X123410000Y-52370000D03*
X123410000Y-49830000D03*
X123410000Y-47290000D03*
X123410000Y-44750000D03*
X123410000Y-42210000D03*
X123410000Y-39670000D03*
X123410000Y-37130000D03*
X123410000Y-34590000D03*
X113250000Y-34590000D03*
X113250000Y-37130000D03*
X113250000Y-39670000D03*
X113250000Y-42210000D03*
X113250000Y-44750000D03*
X113250000Y-47290000D03*
X113250000Y-49830000D03*
X113250000Y-52370000D03*
X113250000Y-54910000D03*
X113250000Y-57450000D03*
X113250000Y-59990000D03*
D14*
X117740000Y-127220000D03*
X120230000Y-76980000D03*
X119080000Y-76980000D03*
X117930000Y-76980000D03*
X116780000Y-76980000D03*
X120230000Y-75830000D03*
X119080000Y-75830000D03*
X117930000Y-75830000D03*
X116780000Y-75830000D03*
X120230000Y-74680000D03*
X119080000Y-74680000D03*
X117930000Y-74680000D03*
X116780000Y-74680000D03*
X120230000Y-73530000D03*
X119080000Y-73530000D03*
X117930000Y-73530000D03*
D10*
G36*
X107839667Y-145521424D02*
X107243576Y-144254667D01*
X108510333Y-143658576D01*
X109106424Y-144925333D01*
X107839667Y-145521424D01*
X107839667Y-145521424D01*
G37*
D15*
X108715740Y-145739130D02*
X108715740Y-145739130D01*
X109256479Y-146888261D02*
X109256479Y-146888261D01*
X109797219Y-148037391D02*
X109797219Y-148037391D01*
X110337959Y-149186521D02*
X110337959Y-149186521D01*
X110878699Y-150335652D02*
X110878699Y-150335652D01*
D16*
X118343743Y-69335858D03*
D17*
X107890000Y-98220000D03*
X107890000Y-100220000D03*
D18*
X112110000Y-93150000D03*
D19*
X112110000Y-95690000D03*
X112110000Y-98230000D03*
X112110000Y-100770000D03*
X112110000Y-103310000D03*
X112110000Y-105850000D03*
X112110000Y-108390000D03*
X112110000Y-110930000D03*
D20*
X125810000Y-99560000D03*
D21*
X125810000Y-100830000D03*
X125810000Y-102100000D03*
X125810000Y-103370000D03*
D22*
X118343743Y-22043858D03*
X106711973Y-133843201D03*
X125807736Y-119834648D03*
D17*
X118195000Y-121935000D03*
X118195000Y-123935000D03*
D23*
X122975000Y-118995000D03*
X120975000Y-118995000D03*
X122995000Y-120995000D03*
X120995000Y-120995000D03*
D24*
X118545000Y-118595000D03*
X117045000Y-118595000D03*
X118565000Y-119915000D03*
X117065000Y-119915000D03*
D20*
X125375000Y-79200000D03*
D21*
X125375000Y-77930000D03*
X125375000Y-76660000D03*
X125375000Y-75390000D03*
D20*
X107750000Y-79200000D03*
D21*
X107750000Y-77930000D03*
X107750000Y-76660000D03*
X107750000Y-75390000D03*
X107750000Y-74120000D03*
X107750000Y-72850000D03*
D25*
X126050000Y-124565000D03*
X126050000Y-130565000D03*
D26*
X128750000Y-124565000D03*
X128750000Y-130565000D03*
D18*
X113040000Y-118710000D03*
D19*
X110500000Y-118710000D03*
X107960000Y-118710000D03*
X105420000Y-118710000D03*
D27*
X118015000Y-125620000D03*
X117565000Y-125620000D03*
X117115000Y-125620000D03*
X116665000Y-125620000D03*
X116215000Y-125620000D03*
X115765000Y-125620000D03*
X115765000Y-128820000D03*
X116215000Y-128820000D03*
X116665000Y-128820000D03*
X117115000Y-128820000D03*
X117565000Y-128820000D03*
X118015000Y-128820000D03*
D28*
X116890000Y-127220000D03*
D24*
X115150000Y-124050000D03*
X116650000Y-124050000D03*
X118110000Y-130290000D03*
X116610000Y-130290000D03*
D14*
X116780000Y-73530000D03*
X116110000Y-127200000D03*
M02*
